G04 #@! TF.GenerationSoftware,KiCad,Pcbnew,8.0.3*
G04 #@! TF.CreationDate,2024-08-26T20:18:44+02:00*
G04 #@! TF.ProjectId,battEliminator,62617474-456c-4696-9d69-6e61746f722e,0.1*
G04 #@! TF.SameCoordinates,Original*
G04 #@! TF.FileFunction,Copper,L1,Top*
G04 #@! TF.FilePolarity,Positive*
%FSLAX46Y46*%
G04 Gerber Fmt 4.6, Leading zero omitted, Abs format (unit mm)*
G04 Created by KiCad (PCBNEW 8.0.3) date 2024-08-26 20:18:44*
%MOMM*%
%LPD*%
G01*
G04 APERTURE LIST*
G04 Aperture macros list*
%AMRoundRect*
0 Rectangle with rounded corners*
0 $1 Rounding radius*
0 $2 $3 $4 $5 $6 $7 $8 $9 X,Y pos of 4 corners*
0 Add a 4 corners polygon primitive as box body*
4,1,4,$2,$3,$4,$5,$6,$7,$8,$9,$2,$3,0*
0 Add four circle primitives for the rounded corners*
1,1,$1+$1,$2,$3*
1,1,$1+$1,$4,$5*
1,1,$1+$1,$6,$7*
1,1,$1+$1,$8,$9*
0 Add four rect primitives between the rounded corners*
20,1,$1+$1,$2,$3,$4,$5,0*
20,1,$1+$1,$4,$5,$6,$7,0*
20,1,$1+$1,$6,$7,$8,$9,0*
20,1,$1+$1,$8,$9,$2,$3,0*%
G04 Aperture macros list end*
G04 #@! TA.AperFunction,SMDPad,CuDef*
%ADD10C,3.000000*%
G04 #@! TD*
G04 #@! TA.AperFunction,ComponentPad*
%ADD11RoundRect,0.250000X-0.650000X-1.550000X0.650000X-1.550000X0.650000X1.550000X-0.650000X1.550000X0*%
G04 #@! TD*
G04 #@! TA.AperFunction,ComponentPad*
%ADD12O,1.800000X3.600000*%
G04 #@! TD*
G04 #@! TA.AperFunction,ViaPad*
%ADD13C,1.000000*%
G04 #@! TD*
G04 #@! TA.AperFunction,Conductor*
%ADD14C,0.400000*%
G04 #@! TD*
G04 #@! TA.AperFunction,Conductor*
%ADD15C,0.500000*%
G04 #@! TD*
G04 #@! TA.AperFunction,Conductor*
%ADD16C,0.800000*%
G04 #@! TD*
G04 APERTURE END LIST*
D10*
X136250000Y-130000000D03*
X119250000Y-130000000D03*
D11*
X125862500Y-94157500D03*
D12*
X129672500Y-94157500D03*
D13*
X141577857Y-105985000D03*
X118717857Y-100905000D03*
X141577857Y-131385000D03*
X116177857Y-126305000D03*
X123872063Y-112514796D03*
X121257857Y-121225000D03*
X139037857Y-93285000D03*
X131417857Y-90745000D03*
X128877857Y-88205000D03*
X128877857Y-139005000D03*
X133957857Y-100905000D03*
X121257857Y-126305000D03*
X136497857Y-126305000D03*
X121257857Y-88205000D03*
X141577857Y-128845000D03*
X123797857Y-133925000D03*
X136497857Y-103445000D03*
X113637857Y-113605000D03*
X141577857Y-118685000D03*
X118717857Y-136465000D03*
X121257857Y-90745000D03*
X136497857Y-95825000D03*
X116177857Y-123765000D03*
X139037857Y-113605000D03*
X113637857Y-95825000D03*
X139037857Y-116145000D03*
X113637857Y-118685000D03*
X125100000Y-112500000D03*
X121257857Y-133925000D03*
X116177857Y-103445000D03*
X118717857Y-93285000D03*
X139037857Y-103445000D03*
X116177857Y-105985000D03*
X128877857Y-123765000D03*
X139037857Y-100905000D03*
X141577857Y-136465000D03*
X118717857Y-126305000D03*
X126337857Y-88205000D03*
X136497857Y-98365000D03*
X118717857Y-105985000D03*
X141577857Y-121225000D03*
X139037857Y-118685000D03*
X131417857Y-139005000D03*
X133957857Y-139005000D03*
X126337857Y-139005000D03*
X139037857Y-108525000D03*
X120500000Y-112300000D03*
X128877857Y-136465000D03*
X113637857Y-121225000D03*
X141577857Y-113605000D03*
X116177857Y-136465000D03*
X141577857Y-111065000D03*
X126337857Y-90745000D03*
X139037857Y-121225000D03*
X116177857Y-108525000D03*
X141577857Y-116145000D03*
X123797857Y-93285000D03*
X118717857Y-98365000D03*
X139037857Y-136465000D03*
X141577857Y-123765000D03*
X113637857Y-123765000D03*
X123797857Y-95825000D03*
X113637857Y-98365000D03*
X116177857Y-95825000D03*
X118717857Y-139005000D03*
X123797857Y-88205000D03*
X121257857Y-100905000D03*
X113637857Y-128845000D03*
X116177857Y-118685000D03*
X118717857Y-133925000D03*
X141577857Y-133925000D03*
X136497857Y-123765000D03*
X116177857Y-116145000D03*
X113637857Y-100905000D03*
X121257857Y-141545000D03*
X141577857Y-108525000D03*
X123797857Y-136465000D03*
X123797857Y-98365000D03*
X131417857Y-133925000D03*
X113637857Y-136465000D03*
X133957857Y-93285000D03*
X133957857Y-118685000D03*
X133957857Y-141545000D03*
X139037857Y-105985000D03*
X128877857Y-133925000D03*
X141577857Y-100905000D03*
X126337857Y-133925000D03*
X123797857Y-90745000D03*
X128877857Y-141545000D03*
X131417857Y-98365000D03*
X113637857Y-103445000D03*
X113637857Y-105985000D03*
X116177857Y-133925000D03*
X118717857Y-88205000D03*
X139037857Y-111065000D03*
X136497857Y-139005000D03*
X116177857Y-93285000D03*
X126337857Y-136465000D03*
X116177857Y-128845000D03*
X141577857Y-103445000D03*
X131417857Y-88205000D03*
X118717857Y-90745000D03*
X141577857Y-98365000D03*
X116177857Y-100905000D03*
X136497857Y-90745000D03*
X116177857Y-98365000D03*
X136497857Y-133925000D03*
X139037857Y-133925000D03*
X121257857Y-95825000D03*
X136497857Y-93285000D03*
X136497857Y-121225000D03*
X113637857Y-126305000D03*
X139037857Y-123765000D03*
X133957857Y-88205000D03*
X136497857Y-136465000D03*
X126337857Y-141545000D03*
X133957857Y-98365000D03*
X133957857Y-90745000D03*
X133957857Y-95825000D03*
X136497857Y-118685000D03*
X136497857Y-100905000D03*
X139037857Y-131385000D03*
X121257857Y-93285000D03*
X139037857Y-98365000D03*
X131417857Y-123765000D03*
X113637857Y-133925000D03*
X139037857Y-95825000D03*
X123850000Y-114650000D03*
X133957857Y-133925000D03*
X113637857Y-108525000D03*
X121257857Y-136465000D03*
X116177857Y-121225000D03*
X133957857Y-116145000D03*
X116177857Y-113605000D03*
X118717857Y-141545000D03*
X119050000Y-112950000D03*
X121257857Y-139005000D03*
X121257857Y-123765000D03*
X126337857Y-98365000D03*
X113637857Y-116145000D03*
X136497857Y-141545000D03*
X125100000Y-113600000D03*
X125100000Y-114700000D03*
X136497857Y-88205000D03*
X121257857Y-103445000D03*
X113637857Y-139005000D03*
X128877857Y-90745000D03*
X141577857Y-95825000D03*
X139037857Y-126305000D03*
X139037857Y-128845000D03*
X133957857Y-103445000D03*
X123797857Y-141545000D03*
X113637857Y-93285000D03*
X116177857Y-131385000D03*
X141577857Y-126305000D03*
X116177857Y-111065000D03*
X141577857Y-93285000D03*
X121257857Y-98365000D03*
X118717857Y-95825000D03*
X123797857Y-139005000D03*
X131417857Y-141545000D03*
X141577857Y-139005000D03*
X131417857Y-116145000D03*
X113637857Y-111065000D03*
X118717857Y-103445000D03*
X113637857Y-131385000D03*
X136497857Y-116145000D03*
X125600000Y-106600000D03*
X127150000Y-120550000D03*
X124400000Y-106600000D03*
X128250000Y-120450000D03*
X123350000Y-131850000D03*
X123300000Y-130800000D03*
X123300000Y-128400000D03*
X123300000Y-129700000D03*
D14*
X125100000Y-112500000D02*
X124250000Y-112500000D01*
X124250000Y-112500000D02*
X124200000Y-112450000D01*
D15*
X127150000Y-109350000D02*
X127150000Y-119550000D01*
X127150000Y-119550000D02*
X127150000Y-120550000D01*
X125300000Y-107500000D02*
X127150000Y-109350000D01*
X128250000Y-120350000D02*
X128250000Y-120450000D01*
X127150000Y-119550000D02*
X127450000Y-119550000D01*
X125300000Y-107500000D02*
X125600000Y-106600000D01*
X127450000Y-119550000D02*
X128000000Y-120100000D01*
X124400000Y-106600000D02*
X125300000Y-107500000D01*
X128000000Y-120100000D02*
X128250000Y-120350000D01*
D16*
X119250000Y-130000000D02*
X121700000Y-130000000D01*
X119250000Y-130000000D02*
X123000000Y-130000000D01*
X123000000Y-130000000D02*
X123300000Y-129700000D01*
X119250000Y-130000000D02*
X122500000Y-130000000D01*
X121700000Y-130000000D02*
X123300000Y-128400000D01*
X121500000Y-130000000D02*
X123350000Y-131850000D01*
X122500000Y-130000000D02*
X123300000Y-130800000D01*
X119250000Y-130000000D02*
X121500000Y-130000000D01*
G04 #@! TA.AperFunction,Conductor*
G36*
X142875000Y-87070462D02*
G01*
X142929538Y-87125000D01*
X142949500Y-87199500D01*
X142949500Y-144300500D01*
X142929538Y-144375000D01*
X142875000Y-144429538D01*
X142800500Y-144449500D01*
X112699500Y-144449500D01*
X112625000Y-144429538D01*
X112570462Y-144375000D01*
X112550500Y-144300500D01*
X112550500Y-141373464D01*
X113569500Y-141373464D01*
X113569500Y-141626535D01*
X113602530Y-141877421D01*
X113602530Y-141877424D01*
X113668027Y-142121866D01*
X113668027Y-142121867D01*
X113764874Y-142355674D01*
X113891405Y-142574832D01*
X113891406Y-142574834D01*
X114045459Y-142775598D01*
X114224401Y-142954540D01*
X114425165Y-143108593D01*
X114425168Y-143108594D01*
X114425170Y-143108596D01*
X114644330Y-143235128D01*
X114841680Y-143316873D01*
X114878132Y-143331972D01*
X114962811Y-143354661D01*
X115122570Y-143397468D01*
X115122576Y-143397468D01*
X115122577Y-143397469D01*
X115158230Y-143402162D01*
X115373465Y-143430499D01*
X115373466Y-143430500D01*
X115373468Y-143430500D01*
X115626534Y-143430500D01*
X115626534Y-143430499D01*
X115877422Y-143397469D01*
X115877424Y-143397469D01*
X115877425Y-143397468D01*
X115877430Y-143397468D01*
X116121866Y-143331972D01*
X116121867Y-143331972D01*
X116121868Y-143331971D01*
X116121870Y-143331971D01*
X116355670Y-143235128D01*
X116574830Y-143108596D01*
X116775598Y-142954541D01*
X116954541Y-142775598D01*
X117108596Y-142574830D01*
X117235128Y-142355670D01*
X117331971Y-142121870D01*
X117397468Y-141877430D01*
X117430500Y-141626532D01*
X117430500Y-141373468D01*
X117430499Y-141373464D01*
X138069500Y-141373464D01*
X138069500Y-141626535D01*
X138102530Y-141877421D01*
X138102530Y-141877424D01*
X138168027Y-142121866D01*
X138168027Y-142121867D01*
X138264874Y-142355674D01*
X138391405Y-142574832D01*
X138391406Y-142574834D01*
X138545459Y-142775598D01*
X138724401Y-142954540D01*
X138925165Y-143108593D01*
X138925168Y-143108594D01*
X138925170Y-143108596D01*
X139144330Y-143235128D01*
X139341680Y-143316873D01*
X139378132Y-143331972D01*
X139462811Y-143354661D01*
X139622570Y-143397468D01*
X139622576Y-143397468D01*
X139622577Y-143397469D01*
X139658230Y-143402162D01*
X139873465Y-143430499D01*
X139873466Y-143430500D01*
X139873468Y-143430500D01*
X140126534Y-143430500D01*
X140126534Y-143430499D01*
X140377422Y-143397469D01*
X140377424Y-143397469D01*
X140377425Y-143397468D01*
X140377430Y-143397468D01*
X140621866Y-143331972D01*
X140621867Y-143331972D01*
X140621868Y-143331971D01*
X140621870Y-143331971D01*
X140855670Y-143235128D01*
X141074830Y-143108596D01*
X141275598Y-142954541D01*
X141454541Y-142775598D01*
X141608596Y-142574830D01*
X141735128Y-142355670D01*
X141831971Y-142121870D01*
X141897468Y-141877430D01*
X141930500Y-141626532D01*
X141930500Y-141373468D01*
X141897468Y-141122570D01*
X141831971Y-140878130D01*
X141735128Y-140644330D01*
X141608596Y-140425170D01*
X141608594Y-140425167D01*
X141608593Y-140425165D01*
X141454540Y-140224401D01*
X141275598Y-140045459D01*
X141074834Y-139891406D01*
X141074832Y-139891405D01*
X140855674Y-139764874D01*
X140855672Y-139764873D01*
X140855670Y-139764872D01*
X140782771Y-139734676D01*
X140621867Y-139668027D01*
X140403618Y-139609549D01*
X140377430Y-139602532D01*
X140377428Y-139602531D01*
X140377422Y-139602530D01*
X140126535Y-139569500D01*
X140126532Y-139569500D01*
X139873468Y-139569500D01*
X139873464Y-139569500D01*
X139622578Y-139602530D01*
X139622575Y-139602530D01*
X139378133Y-139668027D01*
X139378132Y-139668027D01*
X139144325Y-139764874D01*
X138925167Y-139891405D01*
X138925165Y-139891406D01*
X138724401Y-140045459D01*
X138545459Y-140224401D01*
X138391406Y-140425165D01*
X138391405Y-140425167D01*
X138264874Y-140644325D01*
X138168027Y-140878132D01*
X138168027Y-140878133D01*
X138102530Y-141122575D01*
X138102530Y-141122578D01*
X138069500Y-141373464D01*
X117430499Y-141373464D01*
X117397468Y-141122570D01*
X117331971Y-140878130D01*
X117235128Y-140644330D01*
X117108596Y-140425170D01*
X117108594Y-140425167D01*
X117108593Y-140425165D01*
X116954540Y-140224401D01*
X116775598Y-140045459D01*
X116574834Y-139891406D01*
X116574832Y-139891405D01*
X116355674Y-139764874D01*
X116355672Y-139764873D01*
X116355670Y-139764872D01*
X116282771Y-139734676D01*
X116121867Y-139668027D01*
X115903618Y-139609549D01*
X115877430Y-139602532D01*
X115877428Y-139602531D01*
X115877422Y-139602530D01*
X115626535Y-139569500D01*
X115626532Y-139569500D01*
X115373468Y-139569500D01*
X115373464Y-139569500D01*
X115122578Y-139602530D01*
X115122575Y-139602530D01*
X114878133Y-139668027D01*
X114878132Y-139668027D01*
X114644325Y-139764874D01*
X114425167Y-139891405D01*
X114425165Y-139891406D01*
X114224401Y-140045459D01*
X114045459Y-140224401D01*
X113891406Y-140425165D01*
X113891405Y-140425167D01*
X113764874Y-140644325D01*
X113668027Y-140878132D01*
X113668027Y-140878133D01*
X113602530Y-141122575D01*
X113602530Y-141122578D01*
X113569500Y-141373464D01*
X112550500Y-141373464D01*
X112550500Y-129999994D01*
X117344645Y-129999994D01*
X117344645Y-130000005D01*
X117364037Y-130271146D01*
X117364039Y-130271162D01*
X117421823Y-130536795D01*
X117516829Y-130791517D01*
X117647111Y-131030111D01*
X117810026Y-131247739D01*
X118002260Y-131439973D01*
X118219888Y-131602888D01*
X118458482Y-131733170D01*
X118458486Y-131733171D01*
X118458487Y-131733172D01*
X118713199Y-131828175D01*
X118978840Y-131885961D01*
X118978851Y-131885961D01*
X118978853Y-131885962D01*
X119249995Y-131905355D01*
X119250000Y-131905355D01*
X119250005Y-131905355D01*
X119521146Y-131885962D01*
X119521145Y-131885962D01*
X119521160Y-131885961D01*
X119786801Y-131828175D01*
X120041513Y-131733172D01*
X120155498Y-131670932D01*
X120280111Y-131602888D01*
X120280110Y-131602888D01*
X120280113Y-131602887D01*
X120497742Y-131439971D01*
X120689971Y-131247742D01*
X120852887Y-131030113D01*
X120935897Y-130878092D01*
X120989121Y-130822272D01*
X121063125Y-130800542D01*
X121066671Y-130800500D01*
X121106704Y-130800500D01*
X121181204Y-130820462D01*
X121212063Y-130844141D01*
X122467019Y-132099097D01*
X122503366Y-132158410D01*
X122522821Y-132218284D01*
X122522822Y-132218285D01*
X122617469Y-132382220D01*
X122744127Y-132522886D01*
X122744129Y-132522888D01*
X122897270Y-132634151D01*
X123070197Y-132711144D01*
X123211315Y-132741139D01*
X123255352Y-132750500D01*
X123255354Y-132750500D01*
X123444648Y-132750500D01*
X123484004Y-132742134D01*
X123629803Y-132711144D01*
X123802730Y-132634151D01*
X123955871Y-132522888D01*
X124028195Y-132442563D01*
X124082530Y-132382220D01*
X124082531Y-132382218D01*
X124082533Y-132382216D01*
X124177179Y-132218284D01*
X124235674Y-132038256D01*
X124255460Y-131850000D01*
X124236640Y-131670932D01*
X135144752Y-131670932D01*
X135165958Y-131686806D01*
X135417043Y-131823909D01*
X135685101Y-131923889D01*
X135964640Y-131984699D01*
X135964657Y-131984701D01*
X136249994Y-132005109D01*
X136250006Y-132005109D01*
X136535342Y-131984701D01*
X136535359Y-131984699D01*
X136814898Y-131923889D01*
X137082956Y-131823909D01*
X137334036Y-131686809D01*
X137334049Y-131686800D01*
X137355245Y-131670932D01*
X136250000Y-130565685D01*
X135144752Y-131670932D01*
X124236640Y-131670932D01*
X124235674Y-131661744D01*
X124177179Y-131481716D01*
X124104710Y-131356197D01*
X124084749Y-131281698D01*
X124104710Y-131207200D01*
X124127179Y-131168284D01*
X124185674Y-130988256D01*
X124205460Y-130800000D01*
X124185674Y-130611744D01*
X124127179Y-130431716D01*
X124065276Y-130324496D01*
X124045315Y-130250000D01*
X124065276Y-130175503D01*
X124127179Y-130068284D01*
X124149368Y-129999993D01*
X134244891Y-129999993D01*
X134244891Y-130000006D01*
X134265298Y-130285342D01*
X134265300Y-130285359D01*
X134326110Y-130564898D01*
X134426090Y-130832956D01*
X134563189Y-131084034D01*
X134563192Y-131084039D01*
X134579067Y-131105245D01*
X135684313Y-129999999D01*
X136815685Y-129999999D01*
X137920932Y-131105245D01*
X137936800Y-131084049D01*
X137936809Y-131084036D01*
X138073909Y-130832956D01*
X138173889Y-130564898D01*
X138234699Y-130285359D01*
X138234701Y-130285342D01*
X138255109Y-130000006D01*
X138255109Y-129999993D01*
X138234701Y-129714657D01*
X138234699Y-129714640D01*
X138173889Y-129435101D01*
X138073909Y-129167043D01*
X137936806Y-128915958D01*
X137920931Y-128894752D01*
X136815685Y-129999999D01*
X135684313Y-129999999D01*
X134579067Y-128894753D01*
X134563192Y-128915960D01*
X134426090Y-129167043D01*
X134326110Y-129435101D01*
X134265300Y-129714640D01*
X134265298Y-129714657D01*
X134244891Y-129999993D01*
X124149368Y-129999993D01*
X124185674Y-129888256D01*
X124205460Y-129700000D01*
X124185674Y-129511744D01*
X124127179Y-129331716D01*
X124032533Y-129167784D01*
X124016251Y-129149701D01*
X123981235Y-129080982D01*
X123985270Y-129003960D01*
X124016250Y-128950299D01*
X124032533Y-128932216D01*
X124127179Y-128768284D01*
X124185674Y-128588256D01*
X124205460Y-128400000D01*
X124198005Y-128329067D01*
X135144753Y-128329067D01*
X136249999Y-129434313D01*
X137355245Y-128329067D01*
X137334039Y-128313192D01*
X137334034Y-128313189D01*
X137082956Y-128176090D01*
X136814898Y-128076110D01*
X136535359Y-128015300D01*
X136535342Y-128015298D01*
X136250006Y-127994891D01*
X136249994Y-127994891D01*
X135964657Y-128015298D01*
X135964640Y-128015300D01*
X135685101Y-128076110D01*
X135417043Y-128176090D01*
X135165960Y-128313192D01*
X135144753Y-128329067D01*
X124198005Y-128329067D01*
X124185674Y-128211744D01*
X124127179Y-128031716D01*
X124032533Y-127867784D01*
X124032532Y-127867783D01*
X124032530Y-127867779D01*
X123905872Y-127727113D01*
X123752727Y-127615847D01*
X123579805Y-127538857D01*
X123579803Y-127538856D01*
X123473360Y-127516231D01*
X123394648Y-127499500D01*
X123394646Y-127499500D01*
X123205354Y-127499500D01*
X123205352Y-127499500D01*
X123105392Y-127520747D01*
X123020197Y-127538856D01*
X123020195Y-127538856D01*
X123020194Y-127538857D01*
X122847272Y-127615847D01*
X122694127Y-127727113D01*
X122567469Y-127867780D01*
X122472822Y-128031713D01*
X122472820Y-128031718D01*
X122453367Y-128091587D01*
X122417019Y-128150901D01*
X121412063Y-129155859D01*
X121345268Y-129194423D01*
X121306704Y-129199500D01*
X121066671Y-129199500D01*
X120992171Y-129179538D01*
X120937633Y-129125000D01*
X120935897Y-129121908D01*
X120852888Y-128969888D01*
X120689973Y-128752260D01*
X120497739Y-128560026D01*
X120280111Y-128397111D01*
X120041517Y-128266829D01*
X119869824Y-128202791D01*
X119786801Y-128171825D01*
X119786799Y-128171824D01*
X119786795Y-128171823D01*
X119521162Y-128114039D01*
X119521146Y-128114037D01*
X119250005Y-128094645D01*
X119249995Y-128094645D01*
X118978853Y-128114037D01*
X118978837Y-128114039D01*
X118713204Y-128171823D01*
X118458482Y-128266829D01*
X118219888Y-128397111D01*
X118002260Y-128560026D01*
X117810026Y-128752260D01*
X117647111Y-128969888D01*
X117516829Y-129208482D01*
X117421823Y-129463204D01*
X117364039Y-129728837D01*
X117364037Y-129728853D01*
X117344645Y-129999994D01*
X112550500Y-129999994D01*
X112550500Y-106600000D01*
X123494540Y-106600000D01*
X123514325Y-106788254D01*
X123514326Y-106788256D01*
X123572821Y-106968284D01*
X123572822Y-106968285D01*
X123667469Y-107132220D01*
X123794127Y-107272886D01*
X123794129Y-107272888D01*
X123947270Y-107384151D01*
X124120197Y-107461144D01*
X124261315Y-107491139D01*
X124305352Y-107500500D01*
X124305354Y-107500500D01*
X124318836Y-107500500D01*
X124393336Y-107520462D01*
X124424195Y-107544141D01*
X124794721Y-107914666D01*
X124794723Y-107914669D01*
X124804545Y-107924491D01*
X124816889Y-107938490D01*
X124825387Y-107949440D01*
X124825395Y-107949448D01*
X124852338Y-107972815D01*
X124860074Y-107980020D01*
X126455859Y-109575805D01*
X126494423Y-109642600D01*
X126499500Y-109681164D01*
X126499500Y-119869481D01*
X126479538Y-119943981D01*
X126461229Y-119969181D01*
X126417469Y-120017781D01*
X126322822Y-120181714D01*
X126322819Y-120181721D01*
X126264325Y-120361745D01*
X126244540Y-120550000D01*
X126264325Y-120738254D01*
X126264326Y-120738256D01*
X126322821Y-120918284D01*
X126377466Y-121012933D01*
X126417469Y-121082220D01*
X126533887Y-121211513D01*
X126544129Y-121222888D01*
X126697270Y-121334151D01*
X126870197Y-121411144D01*
X127011315Y-121441139D01*
X127055352Y-121450500D01*
X127055354Y-121450500D01*
X127244648Y-121450500D01*
X127284004Y-121442134D01*
X127429803Y-121411144D01*
X127602730Y-121334151D01*
X127692393Y-121269006D01*
X127764399Y-121241367D01*
X127840577Y-121253433D01*
X127875557Y-121269007D01*
X127970197Y-121311144D01*
X128111315Y-121341139D01*
X128155352Y-121350500D01*
X128155354Y-121350500D01*
X128344648Y-121350500D01*
X128384004Y-121342134D01*
X128529803Y-121311144D01*
X128702730Y-121234151D01*
X128855871Y-121122888D01*
X128928195Y-121042563D01*
X128982530Y-120982220D01*
X128982531Y-120982218D01*
X128982533Y-120982216D01*
X129077179Y-120818284D01*
X129135674Y-120638256D01*
X129155460Y-120450000D01*
X129135674Y-120261744D01*
X129077179Y-120081716D01*
X128982533Y-119917784D01*
X128982532Y-119917783D01*
X128982530Y-119917779D01*
X128855872Y-119777113D01*
X128702727Y-119665847D01*
X128529806Y-119588857D01*
X128529804Y-119588856D01*
X128529803Y-119588856D01*
X128419310Y-119565370D01*
X128350589Y-119530354D01*
X128344931Y-119524985D01*
X127864669Y-119044723D01*
X127859008Y-119040077D01*
X127860183Y-119038644D01*
X127815856Y-118988083D01*
X127800500Y-118922203D01*
X127800500Y-109285935D01*
X127800499Y-109285927D01*
X127775501Y-109160257D01*
X127726467Y-109041878D01*
X127726465Y-109041873D01*
X127655277Y-108935331D01*
X126204795Y-107484849D01*
X126166231Y-107418054D01*
X126166231Y-107340926D01*
X126201643Y-107279589D01*
X126200646Y-107278691D01*
X126332530Y-107132220D01*
X126332531Y-107132218D01*
X126332533Y-107132216D01*
X126427179Y-106968284D01*
X126485674Y-106788256D01*
X126505460Y-106600000D01*
X126485674Y-106411744D01*
X126427179Y-106231716D01*
X126332533Y-106067784D01*
X126332532Y-106067783D01*
X126332530Y-106067779D01*
X126205872Y-105927113D01*
X126133855Y-105874790D01*
X126052730Y-105815849D01*
X126052729Y-105815848D01*
X126052727Y-105815847D01*
X125879805Y-105738857D01*
X125879803Y-105738856D01*
X125773360Y-105716231D01*
X125694648Y-105699500D01*
X125694646Y-105699500D01*
X125505354Y-105699500D01*
X125505352Y-105699500D01*
X125405392Y-105720747D01*
X125320197Y-105738856D01*
X125320195Y-105738856D01*
X125320194Y-105738857D01*
X125147269Y-105815849D01*
X125087579Y-105859216D01*
X125015574Y-105886856D01*
X124939395Y-105874790D01*
X124912421Y-105859216D01*
X124852730Y-105815849D01*
X124679805Y-105738857D01*
X124679803Y-105738856D01*
X124573360Y-105716231D01*
X124494648Y-105699500D01*
X124494646Y-105699500D01*
X124305354Y-105699500D01*
X124305352Y-105699500D01*
X124205392Y-105720747D01*
X124120197Y-105738856D01*
X124120195Y-105738856D01*
X124120194Y-105738857D01*
X123947272Y-105815847D01*
X123794127Y-105927113D01*
X123667469Y-106067779D01*
X123572822Y-106231714D01*
X123572819Y-106231721D01*
X123514325Y-106411745D01*
X123494540Y-106600000D01*
X112550500Y-106600000D01*
X112550500Y-92557510D01*
X124462500Y-92557510D01*
X124462500Y-93757500D01*
X125413973Y-93757500D01*
X125382381Y-93789092D01*
X125303389Y-93925909D01*
X125262500Y-94078509D01*
X125262500Y-94236491D01*
X125303389Y-94389091D01*
X125382381Y-94525908D01*
X125413973Y-94557500D01*
X124462501Y-94557500D01*
X124462501Y-95757473D01*
X124472994Y-95860196D01*
X124528142Y-96026621D01*
X124620180Y-96175840D01*
X124744159Y-96299819D01*
X124893378Y-96391857D01*
X125059802Y-96447005D01*
X125059811Y-96447007D01*
X125162515Y-96457499D01*
X125462500Y-96457499D01*
X125462500Y-94606027D01*
X125494092Y-94637619D01*
X125630909Y-94716611D01*
X125783509Y-94757500D01*
X125941491Y-94757500D01*
X126094091Y-94716611D01*
X126230908Y-94637619D01*
X126262500Y-94606027D01*
X126262500Y-96457499D01*
X126562474Y-96457499D01*
X126665196Y-96447005D01*
X126831621Y-96391857D01*
X126980840Y-96299819D01*
X127104819Y-96175840D01*
X127196857Y-96026621D01*
X127252005Y-95860197D01*
X127252007Y-95860188D01*
X127262499Y-95757489D01*
X127262500Y-95757479D01*
X127262500Y-94557500D01*
X126311027Y-94557500D01*
X126342619Y-94525908D01*
X126421611Y-94389091D01*
X126462500Y-94236491D01*
X126462500Y-94078509D01*
X126421611Y-93925909D01*
X126342619Y-93789092D01*
X126311027Y-93757500D01*
X127262499Y-93757500D01*
X127262499Y-93155148D01*
X128372000Y-93155148D01*
X128372000Y-95159852D01*
X128404023Y-95362034D01*
X128467278Y-95556712D01*
X128467282Y-95556724D01*
X128560214Y-95739112D01*
X128680528Y-95904712D01*
X128680535Y-95904720D01*
X128825279Y-96049464D01*
X128825287Y-96049471D01*
X128990887Y-96169785D01*
X128990890Y-96169787D01*
X129173281Y-96262720D01*
X129367966Y-96325977D01*
X129570148Y-96358000D01*
X129570153Y-96358000D01*
X129774847Y-96358000D01*
X129774852Y-96358000D01*
X129977034Y-96325977D01*
X130171719Y-96262720D01*
X130354110Y-96169787D01*
X130519719Y-96049466D01*
X130664466Y-95904719D01*
X130784787Y-95739110D01*
X130877720Y-95556719D01*
X130940977Y-95362034D01*
X130973000Y-95159852D01*
X130973000Y-93155148D01*
X130940977Y-92952966D01*
X130877720Y-92758281D01*
X130784787Y-92575890D01*
X130696813Y-92454803D01*
X130664471Y-92410287D01*
X130664464Y-92410279D01*
X130519720Y-92265535D01*
X130519712Y-92265528D01*
X130354112Y-92145214D01*
X130171724Y-92052282D01*
X130171720Y-92052280D01*
X130171719Y-92052280D01*
X129977034Y-91989023D01*
X129774852Y-91957000D01*
X129570148Y-91957000D01*
X129401663Y-91983685D01*
X129367965Y-91989023D01*
X129173287Y-92052278D01*
X129173275Y-92052282D01*
X128990887Y-92145214D01*
X128825287Y-92265528D01*
X128825279Y-92265535D01*
X128680535Y-92410279D01*
X128680528Y-92410287D01*
X128560214Y-92575887D01*
X128467282Y-92758275D01*
X128467280Y-92758281D01*
X128404023Y-92952966D01*
X128372000Y-93155148D01*
X127262499Y-93155148D01*
X127262499Y-92557526D01*
X127252005Y-92454803D01*
X127196857Y-92288378D01*
X127104819Y-92139159D01*
X126980840Y-92015180D01*
X126831621Y-91923142D01*
X126665197Y-91867994D01*
X126665188Y-91867992D01*
X126562489Y-91857500D01*
X126262500Y-91857500D01*
X126262500Y-93708973D01*
X126230908Y-93677381D01*
X126094091Y-93598389D01*
X125941491Y-93557500D01*
X125783509Y-93557500D01*
X125630909Y-93598389D01*
X125494092Y-93677381D01*
X125462500Y-93708973D01*
X125462500Y-91857500D01*
X125162526Y-91857500D01*
X125059803Y-91867994D01*
X124893378Y-91923142D01*
X124744159Y-92015180D01*
X124620180Y-92139159D01*
X124528142Y-92288378D01*
X124472994Y-92454802D01*
X124472992Y-92454811D01*
X124462500Y-92557510D01*
X112550500Y-92557510D01*
X112550500Y-89873464D01*
X113569500Y-89873464D01*
X113569500Y-90126535D01*
X113602530Y-90377421D01*
X113602530Y-90377424D01*
X113668027Y-90621866D01*
X113668027Y-90621867D01*
X113764874Y-90855674D01*
X113891405Y-91074832D01*
X113891406Y-91074834D01*
X114045459Y-91275598D01*
X114224401Y-91454540D01*
X114425165Y-91608593D01*
X114425168Y-91608594D01*
X114425170Y-91608596D01*
X114644330Y-91735128D01*
X114841680Y-91816873D01*
X114878132Y-91831972D01*
X114962811Y-91854661D01*
X115122570Y-91897468D01*
X115122576Y-91897468D01*
X115122577Y-91897469D01*
X115158230Y-91902162D01*
X115373465Y-91930499D01*
X115373466Y-91930500D01*
X115373468Y-91930500D01*
X115626534Y-91930500D01*
X115626534Y-91930499D01*
X115877422Y-91897469D01*
X115877424Y-91897469D01*
X115877425Y-91897468D01*
X115877430Y-91897468D01*
X116121866Y-91831972D01*
X116121867Y-91831972D01*
X116121868Y-91831971D01*
X116121870Y-91831971D01*
X116355670Y-91735128D01*
X116574830Y-91608596D01*
X116775598Y-91454541D01*
X116954541Y-91275598D01*
X117108596Y-91074830D01*
X117235128Y-90855670D01*
X117331971Y-90621870D01*
X117397468Y-90377430D01*
X117430500Y-90126532D01*
X117430500Y-89873468D01*
X117430499Y-89873464D01*
X138069500Y-89873464D01*
X138069500Y-90126535D01*
X138102530Y-90377421D01*
X138102530Y-90377424D01*
X138168027Y-90621866D01*
X138168027Y-90621867D01*
X138264874Y-90855674D01*
X138391405Y-91074832D01*
X138391406Y-91074834D01*
X138545459Y-91275598D01*
X138724401Y-91454540D01*
X138925165Y-91608593D01*
X138925168Y-91608594D01*
X138925170Y-91608596D01*
X139144330Y-91735128D01*
X139341680Y-91816873D01*
X139378132Y-91831972D01*
X139462811Y-91854661D01*
X139622570Y-91897468D01*
X139622576Y-91897468D01*
X139622577Y-91897469D01*
X139658230Y-91902162D01*
X139873465Y-91930499D01*
X139873466Y-91930500D01*
X139873468Y-91930500D01*
X140126534Y-91930500D01*
X140126534Y-91930499D01*
X140377422Y-91897469D01*
X140377424Y-91897469D01*
X140377425Y-91897468D01*
X140377430Y-91897468D01*
X140621866Y-91831972D01*
X140621867Y-91831972D01*
X140621868Y-91831971D01*
X140621870Y-91831971D01*
X140855670Y-91735128D01*
X141074830Y-91608596D01*
X141275598Y-91454541D01*
X141454541Y-91275598D01*
X141608596Y-91074830D01*
X141735128Y-90855670D01*
X141831971Y-90621870D01*
X141897468Y-90377430D01*
X141930500Y-90126532D01*
X141930500Y-89873468D01*
X141897468Y-89622570D01*
X141831971Y-89378130D01*
X141735128Y-89144330D01*
X141608596Y-88925170D01*
X141608594Y-88925167D01*
X141608593Y-88925165D01*
X141454540Y-88724401D01*
X141275598Y-88545459D01*
X141074834Y-88391406D01*
X141074832Y-88391405D01*
X140855674Y-88264874D01*
X140855672Y-88264873D01*
X140855670Y-88264872D01*
X140782771Y-88234676D01*
X140621867Y-88168027D01*
X140403618Y-88109549D01*
X140377430Y-88102532D01*
X140377428Y-88102531D01*
X140377422Y-88102530D01*
X140126535Y-88069500D01*
X140126532Y-88069500D01*
X139873468Y-88069500D01*
X139873464Y-88069500D01*
X139622578Y-88102530D01*
X139622575Y-88102530D01*
X139378133Y-88168027D01*
X139378132Y-88168027D01*
X139144325Y-88264874D01*
X138925167Y-88391405D01*
X138925165Y-88391406D01*
X138724401Y-88545459D01*
X138545459Y-88724401D01*
X138391406Y-88925165D01*
X138391405Y-88925167D01*
X138264874Y-89144325D01*
X138168027Y-89378132D01*
X138168027Y-89378133D01*
X138102530Y-89622575D01*
X138102530Y-89622578D01*
X138069500Y-89873464D01*
X117430499Y-89873464D01*
X117397468Y-89622570D01*
X117331971Y-89378130D01*
X117235128Y-89144330D01*
X117108596Y-88925170D01*
X117108594Y-88925167D01*
X117108593Y-88925165D01*
X116954540Y-88724401D01*
X116775598Y-88545459D01*
X116574834Y-88391406D01*
X116574832Y-88391405D01*
X116355674Y-88264874D01*
X116355672Y-88264873D01*
X116355670Y-88264872D01*
X116282771Y-88234676D01*
X116121867Y-88168027D01*
X115903618Y-88109549D01*
X115877430Y-88102532D01*
X115877428Y-88102531D01*
X115877422Y-88102530D01*
X115626535Y-88069500D01*
X115626532Y-88069500D01*
X115373468Y-88069500D01*
X115373464Y-88069500D01*
X115122578Y-88102530D01*
X115122575Y-88102530D01*
X114878133Y-88168027D01*
X114878132Y-88168027D01*
X114644325Y-88264874D01*
X114425167Y-88391405D01*
X114425165Y-88391406D01*
X114224401Y-88545459D01*
X114045459Y-88724401D01*
X113891406Y-88925165D01*
X113891405Y-88925167D01*
X113764874Y-89144325D01*
X113668027Y-89378132D01*
X113668027Y-89378133D01*
X113602530Y-89622575D01*
X113602530Y-89622578D01*
X113569500Y-89873464D01*
X112550500Y-89873464D01*
X112550500Y-87199500D01*
X112570462Y-87125000D01*
X112625000Y-87070462D01*
X112699500Y-87050500D01*
X142800500Y-87050500D01*
X142875000Y-87070462D01*
G37*
G04 #@! TD.AperFunction*
M02*
