G04 #@! TF.GenerationSoftware,KiCad,Pcbnew,8.0.5*
G04 #@! TF.CreationDate,2024-10-23T20:54:19+02:00*
G04 #@! TF.ProjectId,battEliminator,62617474-456c-4696-9d69-6e61746f722e,0.2*
G04 #@! TF.SameCoordinates,Original*
G04 #@! TF.FileFunction,Legend,Top*
G04 #@! TF.FilePolarity,Positive*
%FSLAX46Y46*%
G04 Gerber Fmt 4.6, Leading zero omitted, Abs format (unit mm)*
G04 Created by KiCad (PCBNEW 8.0.5) date 2024-10-23 20:54:19*
%MOMM*%
%LPD*%
G01*
G04 APERTURE LIST*
G04 Aperture macros list*
%AMRoundRect*
0 Rectangle with rounded corners*
0 $1 Rounding radius*
0 $2 $3 $4 $5 $6 $7 $8 $9 X,Y pos of 4 corners*
0 Add a 4 corners polygon primitive as box body*
4,1,4,$2,$3,$4,$5,$6,$7,$8,$9,$2,$3,0*
0 Add four circle primitives for the rounded corners*
1,1,$1+$1,$2,$3*
1,1,$1+$1,$4,$5*
1,1,$1+$1,$6,$7*
1,1,$1+$1,$8,$9*
0 Add four rect primitives between the rounded corners*
20,1,$1+$1,$2,$3,$4,$5,0*
20,1,$1+$1,$4,$5,$6,$7,0*
20,1,$1+$1,$6,$7,$8,$9,0*
20,1,$1+$1,$8,$9,$2,$3,0*%
G04 Aperture macros list end*
%ADD10C,0.150000*%
%ADD11C,0.300000*%
%ADD12C,0.120000*%
%ADD13C,3.200000*%
%ADD14C,5.000000*%
%ADD15RoundRect,0.250000X-0.650000X-1.550000X0.650000X-1.550000X0.650000X1.550000X-0.650000X1.550000X0*%
%ADD16O,1.800000X3.600000*%
G04 APERTURE END LIST*
D10*
X125386779Y-96838866D02*
X126148684Y-96838866D01*
X123891541Y-132219819D02*
X124558207Y-132219819D01*
X124558207Y-132219819D02*
X124129636Y-133219819D01*
X124939160Y-133124580D02*
X124986779Y-133172200D01*
X124986779Y-133172200D02*
X124939160Y-133219819D01*
X124939160Y-133219819D02*
X124891541Y-133172200D01*
X124891541Y-133172200D02*
X124939160Y-133124580D01*
X124939160Y-133124580D02*
X124939160Y-133219819D01*
X125843921Y-132553152D02*
X125843921Y-133219819D01*
X125605826Y-132172200D02*
X125367731Y-132886485D01*
X125367731Y-132886485D02*
X125986778Y-132886485D01*
X126986779Y-132219819D02*
X127320112Y-133219819D01*
X127320112Y-133219819D02*
X127653445Y-132219819D01*
X129462969Y-132172200D02*
X128605827Y-133457914D01*
X131082017Y-133219819D02*
X130510589Y-133219819D01*
X130796303Y-133219819D02*
X130796303Y-132219819D01*
X130796303Y-132219819D02*
X130701065Y-132362676D01*
X130701065Y-132362676D02*
X130605827Y-132457914D01*
X130605827Y-132457914D02*
X130510589Y-132505533D01*
X132224875Y-132934104D02*
X132701065Y-132934104D01*
X132129637Y-133219819D02*
X132462970Y-132219819D01*
X132462970Y-132219819D02*
X132796303Y-133219819D01*
D11*
X118573558Y-129727733D02*
X120097368Y-129727733D01*
X119335463Y-130489638D02*
X119335463Y-128965828D01*
D10*
X129336779Y-96988866D02*
X130098684Y-96988866D01*
X129717731Y-97369819D02*
X129717731Y-96607914D01*
X125234398Y-99119819D02*
X125424874Y-99119819D01*
X125424874Y-99119819D02*
X125520112Y-99072200D01*
X125520112Y-99072200D02*
X125567731Y-99024580D01*
X125567731Y-99024580D02*
X125662969Y-98881723D01*
X125662969Y-98881723D02*
X125710588Y-98691247D01*
X125710588Y-98691247D02*
X125710588Y-98310295D01*
X125710588Y-98310295D02*
X125662969Y-98215057D01*
X125662969Y-98215057D02*
X125615350Y-98167438D01*
X125615350Y-98167438D02*
X125520112Y-98119819D01*
X125520112Y-98119819D02*
X125329636Y-98119819D01*
X125329636Y-98119819D02*
X125234398Y-98167438D01*
X125234398Y-98167438D02*
X125186779Y-98215057D01*
X125186779Y-98215057D02*
X125139160Y-98310295D01*
X125139160Y-98310295D02*
X125139160Y-98548390D01*
X125139160Y-98548390D02*
X125186779Y-98643628D01*
X125186779Y-98643628D02*
X125234398Y-98691247D01*
X125234398Y-98691247D02*
X125329636Y-98738866D01*
X125329636Y-98738866D02*
X125520112Y-98738866D01*
X125520112Y-98738866D02*
X125615350Y-98691247D01*
X125615350Y-98691247D02*
X125662969Y-98643628D01*
X125662969Y-98643628D02*
X125710588Y-98548390D01*
X126139160Y-98738866D02*
X126901065Y-98738866D01*
X127329636Y-98215057D02*
X127377255Y-98167438D01*
X127377255Y-98167438D02*
X127472493Y-98119819D01*
X127472493Y-98119819D02*
X127710588Y-98119819D01*
X127710588Y-98119819D02*
X127805826Y-98167438D01*
X127805826Y-98167438D02*
X127853445Y-98215057D01*
X127853445Y-98215057D02*
X127901064Y-98310295D01*
X127901064Y-98310295D02*
X127901064Y-98405533D01*
X127901064Y-98405533D02*
X127853445Y-98548390D01*
X127853445Y-98548390D02*
X127282017Y-99119819D01*
X127282017Y-99119819D02*
X127901064Y-99119819D01*
X128472493Y-98548390D02*
X128377255Y-98500771D01*
X128377255Y-98500771D02*
X128329636Y-98453152D01*
X128329636Y-98453152D02*
X128282017Y-98357914D01*
X128282017Y-98357914D02*
X128282017Y-98310295D01*
X128282017Y-98310295D02*
X128329636Y-98215057D01*
X128329636Y-98215057D02*
X128377255Y-98167438D01*
X128377255Y-98167438D02*
X128472493Y-98119819D01*
X128472493Y-98119819D02*
X128662969Y-98119819D01*
X128662969Y-98119819D02*
X128758207Y-98167438D01*
X128758207Y-98167438D02*
X128805826Y-98215057D01*
X128805826Y-98215057D02*
X128853445Y-98310295D01*
X128853445Y-98310295D02*
X128853445Y-98357914D01*
X128853445Y-98357914D02*
X128805826Y-98453152D01*
X128805826Y-98453152D02*
X128758207Y-98500771D01*
X128758207Y-98500771D02*
X128662969Y-98548390D01*
X128662969Y-98548390D02*
X128472493Y-98548390D01*
X128472493Y-98548390D02*
X128377255Y-98596009D01*
X128377255Y-98596009D02*
X128329636Y-98643628D01*
X128329636Y-98643628D02*
X128282017Y-98738866D01*
X128282017Y-98738866D02*
X128282017Y-98929342D01*
X128282017Y-98929342D02*
X128329636Y-99024580D01*
X128329636Y-99024580D02*
X128377255Y-99072200D01*
X128377255Y-99072200D02*
X128472493Y-99119819D01*
X128472493Y-99119819D02*
X128662969Y-99119819D01*
X128662969Y-99119819D02*
X128758207Y-99072200D01*
X128758207Y-99072200D02*
X128805826Y-99024580D01*
X128805826Y-99024580D02*
X128853445Y-98929342D01*
X128853445Y-98929342D02*
X128853445Y-98738866D01*
X128853445Y-98738866D02*
X128805826Y-98643628D01*
X128805826Y-98643628D02*
X128758207Y-98596009D01*
X128758207Y-98596009D02*
X128662969Y-98548390D01*
X129901065Y-98119819D02*
X130234398Y-99119819D01*
X130234398Y-99119819D02*
X130567731Y-98119819D01*
D11*
X135723558Y-129777733D02*
X137247368Y-129777733D01*
D10*
X120620112Y-110296289D02*
X120762969Y-110343908D01*
X120762969Y-110343908D02*
X120810588Y-110391527D01*
X120810588Y-110391527D02*
X120858207Y-110486765D01*
X120858207Y-110486765D02*
X120858207Y-110629622D01*
X120858207Y-110629622D02*
X120810588Y-110724860D01*
X120810588Y-110724860D02*
X120762969Y-110772480D01*
X120762969Y-110772480D02*
X120667731Y-110820099D01*
X120667731Y-110820099D02*
X120286779Y-110820099D01*
X120286779Y-110820099D02*
X120286779Y-109820099D01*
X120286779Y-109820099D02*
X120620112Y-109820099D01*
X120620112Y-109820099D02*
X120715350Y-109867718D01*
X120715350Y-109867718D02*
X120762969Y-109915337D01*
X120762969Y-109915337D02*
X120810588Y-110010575D01*
X120810588Y-110010575D02*
X120810588Y-110105813D01*
X120810588Y-110105813D02*
X120762969Y-110201051D01*
X120762969Y-110201051D02*
X120715350Y-110248670D01*
X120715350Y-110248670D02*
X120620112Y-110296289D01*
X120620112Y-110296289D02*
X120286779Y-110296289D01*
X121715350Y-110820099D02*
X121715350Y-110296289D01*
X121715350Y-110296289D02*
X121667731Y-110201051D01*
X121667731Y-110201051D02*
X121572493Y-110153432D01*
X121572493Y-110153432D02*
X121382017Y-110153432D01*
X121382017Y-110153432D02*
X121286779Y-110201051D01*
X121715350Y-110772480D02*
X121620112Y-110820099D01*
X121620112Y-110820099D02*
X121382017Y-110820099D01*
X121382017Y-110820099D02*
X121286779Y-110772480D01*
X121286779Y-110772480D02*
X121239160Y-110677241D01*
X121239160Y-110677241D02*
X121239160Y-110582003D01*
X121239160Y-110582003D02*
X121286779Y-110486765D01*
X121286779Y-110486765D02*
X121382017Y-110439146D01*
X121382017Y-110439146D02*
X121620112Y-110439146D01*
X121620112Y-110439146D02*
X121715350Y-110391527D01*
X122048684Y-110153432D02*
X122429636Y-110153432D01*
X122191541Y-109820099D02*
X122191541Y-110677241D01*
X122191541Y-110677241D02*
X122239160Y-110772480D01*
X122239160Y-110772480D02*
X122334398Y-110820099D01*
X122334398Y-110820099D02*
X122429636Y-110820099D01*
X122620113Y-110153432D02*
X123001065Y-110153432D01*
X122762970Y-109820099D02*
X122762970Y-110677241D01*
X122762970Y-110677241D02*
X122810589Y-110772480D01*
X122810589Y-110772480D02*
X122905827Y-110820099D01*
X122905827Y-110820099D02*
X123001065Y-110820099D01*
X123715351Y-110772480D02*
X123620113Y-110820099D01*
X123620113Y-110820099D02*
X123429637Y-110820099D01*
X123429637Y-110820099D02*
X123334399Y-110772480D01*
X123334399Y-110772480D02*
X123286780Y-110677241D01*
X123286780Y-110677241D02*
X123286780Y-110296289D01*
X123286780Y-110296289D02*
X123334399Y-110201051D01*
X123334399Y-110201051D02*
X123429637Y-110153432D01*
X123429637Y-110153432D02*
X123620113Y-110153432D01*
X123620113Y-110153432D02*
X123715351Y-110201051D01*
X123715351Y-110201051D02*
X123762970Y-110296289D01*
X123762970Y-110296289D02*
X123762970Y-110391527D01*
X123762970Y-110391527D02*
X123286780Y-110486765D01*
X124191542Y-110820099D02*
X124191542Y-110153432D01*
X124191542Y-110343908D02*
X124239161Y-110248670D01*
X124239161Y-110248670D02*
X124286780Y-110201051D01*
X124286780Y-110201051D02*
X124382018Y-110153432D01*
X124382018Y-110153432D02*
X124477256Y-110153432D01*
X124715352Y-110153432D02*
X124953447Y-110820099D01*
X125191542Y-110153432D02*
X124953447Y-110820099D01*
X124953447Y-110820099D02*
X124858209Y-111058194D01*
X124858209Y-111058194D02*
X124810590Y-111105813D01*
X124810590Y-111105813D02*
X124715352Y-111153432D01*
X126334400Y-110296289D02*
X126667733Y-110296289D01*
X126810590Y-110820099D02*
X126334400Y-110820099D01*
X126334400Y-110820099D02*
X126334400Y-109820099D01*
X126334400Y-109820099D02*
X126810590Y-109820099D01*
X127382019Y-110820099D02*
X127286781Y-110772480D01*
X127286781Y-110772480D02*
X127239162Y-110677241D01*
X127239162Y-110677241D02*
X127239162Y-109820099D01*
X127762972Y-110820099D02*
X127762972Y-110153432D01*
X127762972Y-109820099D02*
X127715353Y-109867718D01*
X127715353Y-109867718D02*
X127762972Y-109915337D01*
X127762972Y-109915337D02*
X127810591Y-109867718D01*
X127810591Y-109867718D02*
X127762972Y-109820099D01*
X127762972Y-109820099D02*
X127762972Y-109915337D01*
X128239162Y-110820099D02*
X128239162Y-110153432D01*
X128239162Y-110248670D02*
X128286781Y-110201051D01*
X128286781Y-110201051D02*
X128382019Y-110153432D01*
X128382019Y-110153432D02*
X128524876Y-110153432D01*
X128524876Y-110153432D02*
X128620114Y-110201051D01*
X128620114Y-110201051D02*
X128667733Y-110296289D01*
X128667733Y-110296289D02*
X128667733Y-110820099D01*
X128667733Y-110296289D02*
X128715352Y-110201051D01*
X128715352Y-110201051D02*
X128810590Y-110153432D01*
X128810590Y-110153432D02*
X128953447Y-110153432D01*
X128953447Y-110153432D02*
X129048686Y-110201051D01*
X129048686Y-110201051D02*
X129096305Y-110296289D01*
X129096305Y-110296289D02*
X129096305Y-110820099D01*
X129572495Y-110820099D02*
X129572495Y-110153432D01*
X129572495Y-109820099D02*
X129524876Y-109867718D01*
X129524876Y-109867718D02*
X129572495Y-109915337D01*
X129572495Y-109915337D02*
X129620114Y-109867718D01*
X129620114Y-109867718D02*
X129572495Y-109820099D01*
X129572495Y-109820099D02*
X129572495Y-109915337D01*
X130048685Y-110153432D02*
X130048685Y-110820099D01*
X130048685Y-110248670D02*
X130096304Y-110201051D01*
X130096304Y-110201051D02*
X130191542Y-110153432D01*
X130191542Y-110153432D02*
X130334399Y-110153432D01*
X130334399Y-110153432D02*
X130429637Y-110201051D01*
X130429637Y-110201051D02*
X130477256Y-110296289D01*
X130477256Y-110296289D02*
X130477256Y-110820099D01*
X131382018Y-110820099D02*
X131382018Y-110296289D01*
X131382018Y-110296289D02*
X131334399Y-110201051D01*
X131334399Y-110201051D02*
X131239161Y-110153432D01*
X131239161Y-110153432D02*
X131048685Y-110153432D01*
X131048685Y-110153432D02*
X130953447Y-110201051D01*
X131382018Y-110772480D02*
X131286780Y-110820099D01*
X131286780Y-110820099D02*
X131048685Y-110820099D01*
X131048685Y-110820099D02*
X130953447Y-110772480D01*
X130953447Y-110772480D02*
X130905828Y-110677241D01*
X130905828Y-110677241D02*
X130905828Y-110582003D01*
X130905828Y-110582003D02*
X130953447Y-110486765D01*
X130953447Y-110486765D02*
X131048685Y-110439146D01*
X131048685Y-110439146D02*
X131286780Y-110439146D01*
X131286780Y-110439146D02*
X131382018Y-110391527D01*
X131715352Y-110153432D02*
X132096304Y-110153432D01*
X131858209Y-109820099D02*
X131858209Y-110677241D01*
X131858209Y-110677241D02*
X131905828Y-110772480D01*
X131905828Y-110772480D02*
X132001066Y-110820099D01*
X132001066Y-110820099D02*
X132096304Y-110820099D01*
X132572495Y-110820099D02*
X132477257Y-110772480D01*
X132477257Y-110772480D02*
X132429638Y-110724860D01*
X132429638Y-110724860D02*
X132382019Y-110629622D01*
X132382019Y-110629622D02*
X132382019Y-110343908D01*
X132382019Y-110343908D02*
X132429638Y-110248670D01*
X132429638Y-110248670D02*
X132477257Y-110201051D01*
X132477257Y-110201051D02*
X132572495Y-110153432D01*
X132572495Y-110153432D02*
X132715352Y-110153432D01*
X132715352Y-110153432D02*
X132810590Y-110201051D01*
X132810590Y-110201051D02*
X132858209Y-110248670D01*
X132858209Y-110248670D02*
X132905828Y-110343908D01*
X132905828Y-110343908D02*
X132905828Y-110629622D01*
X132905828Y-110629622D02*
X132858209Y-110724860D01*
X132858209Y-110724860D02*
X132810590Y-110772480D01*
X132810590Y-110772480D02*
X132715352Y-110820099D01*
X132715352Y-110820099D02*
X132572495Y-110820099D01*
X133334400Y-110820099D02*
X133334400Y-110153432D01*
X133334400Y-110343908D02*
X133382019Y-110248670D01*
X133382019Y-110248670D02*
X133429638Y-110201051D01*
X133429638Y-110201051D02*
X133524876Y-110153432D01*
X133524876Y-110153432D02*
X133620114Y-110153432D01*
X134572496Y-110153432D02*
X134953448Y-110153432D01*
X134715353Y-110820099D02*
X134715353Y-109962956D01*
X134715353Y-109962956D02*
X134762972Y-109867718D01*
X134762972Y-109867718D02*
X134858210Y-109820099D01*
X134858210Y-109820099D02*
X134953448Y-109820099D01*
X135429639Y-110820099D02*
X135334401Y-110772480D01*
X135334401Y-110772480D02*
X135286782Y-110724860D01*
X135286782Y-110724860D02*
X135239163Y-110629622D01*
X135239163Y-110629622D02*
X135239163Y-110343908D01*
X135239163Y-110343908D02*
X135286782Y-110248670D01*
X135286782Y-110248670D02*
X135334401Y-110201051D01*
X135334401Y-110201051D02*
X135429639Y-110153432D01*
X135429639Y-110153432D02*
X135572496Y-110153432D01*
X135572496Y-110153432D02*
X135667734Y-110201051D01*
X135667734Y-110201051D02*
X135715353Y-110248670D01*
X135715353Y-110248670D02*
X135762972Y-110343908D01*
X135762972Y-110343908D02*
X135762972Y-110629622D01*
X135762972Y-110629622D02*
X135715353Y-110724860D01*
X135715353Y-110724860D02*
X135667734Y-110772480D01*
X135667734Y-110772480D02*
X135572496Y-110820099D01*
X135572496Y-110820099D02*
X135429639Y-110820099D01*
X136191544Y-110820099D02*
X136191544Y-110153432D01*
X136191544Y-110343908D02*
X136239163Y-110248670D01*
X136239163Y-110248670D02*
X136286782Y-110201051D01*
X136286782Y-110201051D02*
X136382020Y-110153432D01*
X136382020Y-110153432D02*
X136477258Y-110153432D01*
X120286779Y-112430043D02*
X120286779Y-111430043D01*
X120286779Y-111430043D02*
X120858207Y-112430043D01*
X120858207Y-112430043D02*
X120858207Y-111430043D01*
X121762969Y-112430043D02*
X121762969Y-111906233D01*
X121762969Y-111906233D02*
X121715350Y-111810995D01*
X121715350Y-111810995D02*
X121620112Y-111763376D01*
X121620112Y-111763376D02*
X121429636Y-111763376D01*
X121429636Y-111763376D02*
X121334398Y-111810995D01*
X121762969Y-112382424D02*
X121667731Y-112430043D01*
X121667731Y-112430043D02*
X121429636Y-112430043D01*
X121429636Y-112430043D02*
X121334398Y-112382424D01*
X121334398Y-112382424D02*
X121286779Y-112287185D01*
X121286779Y-112287185D02*
X121286779Y-112191947D01*
X121286779Y-112191947D02*
X121334398Y-112096709D01*
X121334398Y-112096709D02*
X121429636Y-112049090D01*
X121429636Y-112049090D02*
X121667731Y-112049090D01*
X121667731Y-112049090D02*
X121762969Y-112001471D01*
X122143922Y-111763376D02*
X122382017Y-112430043D01*
X122382017Y-112430043D02*
X122620112Y-111763376D01*
X123572493Y-112334804D02*
X123524874Y-112382424D01*
X123524874Y-112382424D02*
X123382017Y-112430043D01*
X123382017Y-112430043D02*
X123286779Y-112430043D01*
X123286779Y-112430043D02*
X123143922Y-112382424D01*
X123143922Y-112382424D02*
X123048684Y-112287185D01*
X123048684Y-112287185D02*
X123001065Y-112191947D01*
X123001065Y-112191947D02*
X122953446Y-112001471D01*
X122953446Y-112001471D02*
X122953446Y-111858614D01*
X122953446Y-111858614D02*
X123001065Y-111668138D01*
X123001065Y-111668138D02*
X123048684Y-111572900D01*
X123048684Y-111572900D02*
X123143922Y-111477662D01*
X123143922Y-111477662D02*
X123286779Y-111430043D01*
X123286779Y-111430043D02*
X123382017Y-111430043D01*
X123382017Y-111430043D02*
X123524874Y-111477662D01*
X123524874Y-111477662D02*
X123572493Y-111525281D01*
X124143922Y-112430043D02*
X124048684Y-112382424D01*
X124048684Y-112382424D02*
X124001065Y-112334804D01*
X124001065Y-112334804D02*
X123953446Y-112239566D01*
X123953446Y-112239566D02*
X123953446Y-111953852D01*
X123953446Y-111953852D02*
X124001065Y-111858614D01*
X124001065Y-111858614D02*
X124048684Y-111810995D01*
X124048684Y-111810995D02*
X124143922Y-111763376D01*
X124143922Y-111763376D02*
X124286779Y-111763376D01*
X124286779Y-111763376D02*
X124382017Y-111810995D01*
X124382017Y-111810995D02*
X124429636Y-111858614D01*
X124429636Y-111858614D02*
X124477255Y-111953852D01*
X124477255Y-111953852D02*
X124477255Y-112239566D01*
X124477255Y-112239566D02*
X124429636Y-112334804D01*
X124429636Y-112334804D02*
X124382017Y-112382424D01*
X124382017Y-112382424D02*
X124286779Y-112430043D01*
X124286779Y-112430043D02*
X124143922Y-112430043D01*
X124905827Y-112430043D02*
X124905827Y-111763376D01*
X124905827Y-111858614D02*
X124953446Y-111810995D01*
X124953446Y-111810995D02*
X125048684Y-111763376D01*
X125048684Y-111763376D02*
X125191541Y-111763376D01*
X125191541Y-111763376D02*
X125286779Y-111810995D01*
X125286779Y-111810995D02*
X125334398Y-111906233D01*
X125334398Y-111906233D02*
X125334398Y-112430043D01*
X125334398Y-111906233D02*
X125382017Y-111810995D01*
X125382017Y-111810995D02*
X125477255Y-111763376D01*
X125477255Y-111763376D02*
X125620112Y-111763376D01*
X125620112Y-111763376D02*
X125715351Y-111810995D01*
X125715351Y-111810995D02*
X125762970Y-111906233D01*
X125762970Y-111906233D02*
X125762970Y-112430043D01*
X126239160Y-112430043D02*
X126239160Y-111763376D01*
X126239160Y-111858614D02*
X126286779Y-111810995D01*
X126286779Y-111810995D02*
X126382017Y-111763376D01*
X126382017Y-111763376D02*
X126524874Y-111763376D01*
X126524874Y-111763376D02*
X126620112Y-111810995D01*
X126620112Y-111810995D02*
X126667731Y-111906233D01*
X126667731Y-111906233D02*
X126667731Y-112430043D01*
X126667731Y-111906233D02*
X126715350Y-111810995D01*
X126715350Y-111810995D02*
X126810588Y-111763376D01*
X126810588Y-111763376D02*
X126953445Y-111763376D01*
X126953445Y-111763376D02*
X127048684Y-111810995D01*
X127048684Y-111810995D02*
X127096303Y-111906233D01*
X127096303Y-111906233D02*
X127096303Y-112430043D01*
X128334398Y-112430043D02*
X128334398Y-111430043D01*
X128334398Y-111430043D02*
X128905826Y-112430043D01*
X128905826Y-112430043D02*
X128905826Y-111430043D01*
X129953445Y-112334804D02*
X129905826Y-112382424D01*
X129905826Y-112382424D02*
X129762969Y-112430043D01*
X129762969Y-112430043D02*
X129667731Y-112430043D01*
X129667731Y-112430043D02*
X129524874Y-112382424D01*
X129524874Y-112382424D02*
X129429636Y-112287185D01*
X129429636Y-112287185D02*
X129382017Y-112191947D01*
X129382017Y-112191947D02*
X129334398Y-112001471D01*
X129334398Y-112001471D02*
X129334398Y-111858614D01*
X129334398Y-111858614D02*
X129382017Y-111668138D01*
X129382017Y-111668138D02*
X129429636Y-111572900D01*
X129429636Y-111572900D02*
X129524874Y-111477662D01*
X129524874Y-111477662D02*
X129667731Y-111430043D01*
X129667731Y-111430043D02*
X129762969Y-111430043D01*
X129762969Y-111430043D02*
X129905826Y-111477662D01*
X129905826Y-111477662D02*
X129953445Y-111525281D01*
X130382017Y-112049090D02*
X131143922Y-112049090D01*
X132096302Y-111430043D02*
X131620112Y-111430043D01*
X131620112Y-111430043D02*
X131572493Y-111906233D01*
X131572493Y-111906233D02*
X131620112Y-111858614D01*
X131620112Y-111858614D02*
X131715350Y-111810995D01*
X131715350Y-111810995D02*
X131953445Y-111810995D01*
X131953445Y-111810995D02*
X132048683Y-111858614D01*
X132048683Y-111858614D02*
X132096302Y-111906233D01*
X132096302Y-111906233D02*
X132143921Y-112001471D01*
X132143921Y-112001471D02*
X132143921Y-112239566D01*
X132143921Y-112239566D02*
X132096302Y-112334804D01*
X132096302Y-112334804D02*
X132048683Y-112382424D01*
X132048683Y-112382424D02*
X131953445Y-112430043D01*
X131953445Y-112430043D02*
X131715350Y-112430043D01*
X131715350Y-112430043D02*
X131620112Y-112382424D01*
X131620112Y-112382424D02*
X131572493Y-112334804D01*
X133048683Y-111430043D02*
X132572493Y-111430043D01*
X132572493Y-111430043D02*
X132524874Y-111906233D01*
X132524874Y-111906233D02*
X132572493Y-111858614D01*
X132572493Y-111858614D02*
X132667731Y-111810995D01*
X132667731Y-111810995D02*
X132905826Y-111810995D01*
X132905826Y-111810995D02*
X133001064Y-111858614D01*
X133001064Y-111858614D02*
X133048683Y-111906233D01*
X133048683Y-111906233D02*
X133096302Y-112001471D01*
X133096302Y-112001471D02*
X133096302Y-112239566D01*
X133096302Y-112239566D02*
X133048683Y-112334804D01*
X133048683Y-112334804D02*
X133001064Y-112382424D01*
X133001064Y-112382424D02*
X132905826Y-112430043D01*
X132905826Y-112430043D02*
X132667731Y-112430043D01*
X132667731Y-112430043D02*
X132572493Y-112382424D01*
X132572493Y-112382424D02*
X132524874Y-112334804D01*
X133477255Y-112144328D02*
X133953445Y-112144328D01*
X133382017Y-112430043D02*
X133715350Y-111430043D01*
X133715350Y-111430043D02*
X134048683Y-112430043D01*
X120191541Y-114983264D02*
X120382017Y-115649931D01*
X120382017Y-115649931D02*
X120572493Y-115173740D01*
X120572493Y-115173740D02*
X120762969Y-115649931D01*
X120762969Y-115649931D02*
X120953445Y-114983264D01*
X121239160Y-114983264D02*
X121429636Y-115649931D01*
X121429636Y-115649931D02*
X121620112Y-115173740D01*
X121620112Y-115173740D02*
X121810588Y-115649931D01*
X121810588Y-115649931D02*
X122001064Y-114983264D01*
X122286779Y-114983264D02*
X122477255Y-115649931D01*
X122477255Y-115649931D02*
X122667731Y-115173740D01*
X122667731Y-115173740D02*
X122858207Y-115649931D01*
X122858207Y-115649931D02*
X123048683Y-114983264D01*
X123429636Y-115554692D02*
X123477255Y-115602312D01*
X123477255Y-115602312D02*
X123429636Y-115649931D01*
X123429636Y-115649931D02*
X123382017Y-115602312D01*
X123382017Y-115602312D02*
X123429636Y-115554692D01*
X123429636Y-115554692D02*
X123429636Y-115649931D01*
X124334397Y-115649931D02*
X124334397Y-114649931D01*
X124334397Y-115602312D02*
X124239159Y-115649931D01*
X124239159Y-115649931D02*
X124048683Y-115649931D01*
X124048683Y-115649931D02*
X123953445Y-115602312D01*
X123953445Y-115602312D02*
X123905826Y-115554692D01*
X123905826Y-115554692D02*
X123858207Y-115459454D01*
X123858207Y-115459454D02*
X123858207Y-115173740D01*
X123858207Y-115173740D02*
X123905826Y-115078502D01*
X123905826Y-115078502D02*
X123953445Y-115030883D01*
X123953445Y-115030883D02*
X124048683Y-114983264D01*
X124048683Y-114983264D02*
X124239159Y-114983264D01*
X124239159Y-114983264D02*
X124334397Y-115030883D01*
X125191540Y-115602312D02*
X125096302Y-115649931D01*
X125096302Y-115649931D02*
X124905826Y-115649931D01*
X124905826Y-115649931D02*
X124810588Y-115602312D01*
X124810588Y-115602312D02*
X124762969Y-115507073D01*
X124762969Y-115507073D02*
X124762969Y-115126121D01*
X124762969Y-115126121D02*
X124810588Y-115030883D01*
X124810588Y-115030883D02*
X124905826Y-114983264D01*
X124905826Y-114983264D02*
X125096302Y-114983264D01*
X125096302Y-114983264D02*
X125191540Y-115030883D01*
X125191540Y-115030883D02*
X125239159Y-115126121D01*
X125239159Y-115126121D02*
X125239159Y-115221359D01*
X125239159Y-115221359D02*
X124762969Y-115316597D01*
X126096302Y-115649931D02*
X126096302Y-115126121D01*
X126096302Y-115126121D02*
X126048683Y-115030883D01*
X126048683Y-115030883D02*
X125953445Y-114983264D01*
X125953445Y-114983264D02*
X125762969Y-114983264D01*
X125762969Y-114983264D02*
X125667731Y-115030883D01*
X126096302Y-115602312D02*
X126001064Y-115649931D01*
X126001064Y-115649931D02*
X125762969Y-115649931D01*
X125762969Y-115649931D02*
X125667731Y-115602312D01*
X125667731Y-115602312D02*
X125620112Y-115507073D01*
X125620112Y-115507073D02*
X125620112Y-115411835D01*
X125620112Y-115411835D02*
X125667731Y-115316597D01*
X125667731Y-115316597D02*
X125762969Y-115268978D01*
X125762969Y-115268978D02*
X126001064Y-115268978D01*
X126001064Y-115268978D02*
X126096302Y-115221359D01*
X127001064Y-115649931D02*
X127001064Y-114649931D01*
X127001064Y-115602312D02*
X126905826Y-115649931D01*
X126905826Y-115649931D02*
X126715350Y-115649931D01*
X126715350Y-115649931D02*
X126620112Y-115602312D01*
X126620112Y-115602312D02*
X126572493Y-115554692D01*
X126572493Y-115554692D02*
X126524874Y-115459454D01*
X126524874Y-115459454D02*
X126524874Y-115173740D01*
X126524874Y-115173740D02*
X126572493Y-115078502D01*
X126572493Y-115078502D02*
X126620112Y-115030883D01*
X126620112Y-115030883D02*
X126715350Y-114983264D01*
X126715350Y-114983264D02*
X126905826Y-114983264D01*
X126905826Y-114983264D02*
X127001064Y-115030883D01*
X127477255Y-115649931D02*
X127477255Y-114649931D01*
X127477255Y-115030883D02*
X127572493Y-114983264D01*
X127572493Y-114983264D02*
X127762969Y-114983264D01*
X127762969Y-114983264D02*
X127858207Y-115030883D01*
X127858207Y-115030883D02*
X127905826Y-115078502D01*
X127905826Y-115078502D02*
X127953445Y-115173740D01*
X127953445Y-115173740D02*
X127953445Y-115459454D01*
X127953445Y-115459454D02*
X127905826Y-115554692D01*
X127905826Y-115554692D02*
X127858207Y-115602312D01*
X127858207Y-115602312D02*
X127762969Y-115649931D01*
X127762969Y-115649931D02*
X127572493Y-115649931D01*
X127572493Y-115649931D02*
X127477255Y-115602312D01*
X128810588Y-115649931D02*
X128810588Y-115126121D01*
X128810588Y-115126121D02*
X128762969Y-115030883D01*
X128762969Y-115030883D02*
X128667731Y-114983264D01*
X128667731Y-114983264D02*
X128477255Y-114983264D01*
X128477255Y-114983264D02*
X128382017Y-115030883D01*
X128810588Y-115602312D02*
X128715350Y-115649931D01*
X128715350Y-115649931D02*
X128477255Y-115649931D01*
X128477255Y-115649931D02*
X128382017Y-115602312D01*
X128382017Y-115602312D02*
X128334398Y-115507073D01*
X128334398Y-115507073D02*
X128334398Y-115411835D01*
X128334398Y-115411835D02*
X128382017Y-115316597D01*
X128382017Y-115316597D02*
X128477255Y-115268978D01*
X128477255Y-115268978D02*
X128715350Y-115268978D01*
X128715350Y-115268978D02*
X128810588Y-115221359D01*
X129715350Y-115649931D02*
X129715350Y-114649931D01*
X129715350Y-115602312D02*
X129620112Y-115649931D01*
X129620112Y-115649931D02*
X129429636Y-115649931D01*
X129429636Y-115649931D02*
X129334398Y-115602312D01*
X129334398Y-115602312D02*
X129286779Y-115554692D01*
X129286779Y-115554692D02*
X129239160Y-115459454D01*
X129239160Y-115459454D02*
X129239160Y-115173740D01*
X129239160Y-115173740D02*
X129286779Y-115078502D01*
X129286779Y-115078502D02*
X129334398Y-115030883D01*
X129334398Y-115030883D02*
X129429636Y-114983264D01*
X129429636Y-114983264D02*
X129620112Y-114983264D01*
X129620112Y-114983264D02*
X129715350Y-115030883D01*
X130620112Y-114983264D02*
X130620112Y-115792788D01*
X130620112Y-115792788D02*
X130572493Y-115888026D01*
X130572493Y-115888026D02*
X130524874Y-115935645D01*
X130524874Y-115935645D02*
X130429636Y-115983264D01*
X130429636Y-115983264D02*
X130286779Y-115983264D01*
X130286779Y-115983264D02*
X130191541Y-115935645D01*
X130620112Y-115602312D02*
X130524874Y-115649931D01*
X130524874Y-115649931D02*
X130334398Y-115649931D01*
X130334398Y-115649931D02*
X130239160Y-115602312D01*
X130239160Y-115602312D02*
X130191541Y-115554692D01*
X130191541Y-115554692D02*
X130143922Y-115459454D01*
X130143922Y-115459454D02*
X130143922Y-115173740D01*
X130143922Y-115173740D02*
X130191541Y-115078502D01*
X130191541Y-115078502D02*
X130239160Y-115030883D01*
X130239160Y-115030883D02*
X130334398Y-114983264D01*
X130334398Y-114983264D02*
X130524874Y-114983264D01*
X130524874Y-114983264D02*
X130620112Y-115030883D01*
X131477255Y-115602312D02*
X131382017Y-115649931D01*
X131382017Y-115649931D02*
X131191541Y-115649931D01*
X131191541Y-115649931D02*
X131096303Y-115602312D01*
X131096303Y-115602312D02*
X131048684Y-115507073D01*
X131048684Y-115507073D02*
X131048684Y-115126121D01*
X131048684Y-115126121D02*
X131096303Y-115030883D01*
X131096303Y-115030883D02*
X131191541Y-114983264D01*
X131191541Y-114983264D02*
X131382017Y-114983264D01*
X131382017Y-114983264D02*
X131477255Y-115030883D01*
X131477255Y-115030883D02*
X131524874Y-115126121D01*
X131524874Y-115126121D02*
X131524874Y-115221359D01*
X131524874Y-115221359D02*
X131048684Y-115316597D01*
X131953446Y-115649931D02*
X131953446Y-114983264D01*
X131953446Y-115173740D02*
X132001065Y-115078502D01*
X132001065Y-115078502D02*
X132048684Y-115030883D01*
X132048684Y-115030883D02*
X132143922Y-114983264D01*
X132143922Y-114983264D02*
X132239160Y-114983264D01*
X132572494Y-115554692D02*
X132620113Y-115602312D01*
X132620113Y-115602312D02*
X132572494Y-115649931D01*
X132572494Y-115649931D02*
X132524875Y-115602312D01*
X132524875Y-115602312D02*
X132572494Y-115554692D01*
X132572494Y-115554692D02*
X132572494Y-115649931D01*
X133477255Y-115602312D02*
X133382017Y-115649931D01*
X133382017Y-115649931D02*
X133191541Y-115649931D01*
X133191541Y-115649931D02*
X133096303Y-115602312D01*
X133096303Y-115602312D02*
X133048684Y-115554692D01*
X133048684Y-115554692D02*
X133001065Y-115459454D01*
X133001065Y-115459454D02*
X133001065Y-115173740D01*
X133001065Y-115173740D02*
X133048684Y-115078502D01*
X133048684Y-115078502D02*
X133096303Y-115030883D01*
X133096303Y-115030883D02*
X133191541Y-114983264D01*
X133191541Y-114983264D02*
X133382017Y-114983264D01*
X133382017Y-114983264D02*
X133477255Y-115030883D01*
X133810589Y-114983264D02*
X134334398Y-114983264D01*
X134334398Y-114983264D02*
X133810589Y-115649931D01*
X133810589Y-115649931D02*
X134334398Y-115649931D01*
X120286779Y-117259875D02*
X120286779Y-116259875D01*
X120858207Y-117259875D02*
X120429636Y-116688446D01*
X120858207Y-116259875D02*
X120286779Y-116831303D01*
X121715350Y-117259875D02*
X121715350Y-116736065D01*
X121715350Y-116736065D02*
X121667731Y-116640827D01*
X121667731Y-116640827D02*
X121572493Y-116593208D01*
X121572493Y-116593208D02*
X121382017Y-116593208D01*
X121382017Y-116593208D02*
X121286779Y-116640827D01*
X121715350Y-117212256D02*
X121620112Y-117259875D01*
X121620112Y-117259875D02*
X121382017Y-117259875D01*
X121382017Y-117259875D02*
X121286779Y-117212256D01*
X121286779Y-117212256D02*
X121239160Y-117117017D01*
X121239160Y-117117017D02*
X121239160Y-117021779D01*
X121239160Y-117021779D02*
X121286779Y-116926541D01*
X121286779Y-116926541D02*
X121382017Y-116878922D01*
X121382017Y-116878922D02*
X121620112Y-116878922D01*
X121620112Y-116878922D02*
X121715350Y-116831303D01*
X122191541Y-116593208D02*
X122191541Y-117450351D01*
X122191541Y-117450351D02*
X122143922Y-117545589D01*
X122143922Y-117545589D02*
X122048684Y-117593208D01*
X122048684Y-117593208D02*
X122001065Y-117593208D01*
X122191541Y-116259875D02*
X122143922Y-116307494D01*
X122143922Y-116307494D02*
X122191541Y-116355113D01*
X122191541Y-116355113D02*
X122239160Y-116307494D01*
X122239160Y-116307494D02*
X122191541Y-116259875D01*
X122191541Y-116259875D02*
X122191541Y-116355113D01*
X123096302Y-116593208D02*
X123096302Y-117259875D01*
X122667731Y-116593208D02*
X122667731Y-117117017D01*
X122667731Y-117117017D02*
X122715350Y-117212256D01*
X122715350Y-117212256D02*
X122810588Y-117259875D01*
X122810588Y-117259875D02*
X122953445Y-117259875D01*
X122953445Y-117259875D02*
X123048683Y-117212256D01*
X123048683Y-117212256D02*
X123096302Y-117164636D01*
X123524874Y-117212256D02*
X123620112Y-117259875D01*
X123620112Y-117259875D02*
X123810588Y-117259875D01*
X123810588Y-117259875D02*
X123905826Y-117212256D01*
X123905826Y-117212256D02*
X123953445Y-117117017D01*
X123953445Y-117117017D02*
X123953445Y-117069398D01*
X123953445Y-117069398D02*
X123905826Y-116974160D01*
X123905826Y-116974160D02*
X123810588Y-116926541D01*
X123810588Y-116926541D02*
X123667731Y-116926541D01*
X123667731Y-116926541D02*
X123572493Y-116878922D01*
X123572493Y-116878922D02*
X123524874Y-116783684D01*
X123524874Y-116783684D02*
X123524874Y-116736065D01*
X123524874Y-116736065D02*
X123572493Y-116640827D01*
X123572493Y-116640827D02*
X123667731Y-116593208D01*
X123667731Y-116593208D02*
X123810588Y-116593208D01*
X123810588Y-116593208D02*
X123905826Y-116640827D01*
X120191541Y-118203152D02*
X120429636Y-118869819D01*
X120429636Y-118869819D02*
X120667731Y-118203152D01*
X121239160Y-117869819D02*
X121334398Y-117869819D01*
X121334398Y-117869819D02*
X121429636Y-117917438D01*
X121429636Y-117917438D02*
X121477255Y-117965057D01*
X121477255Y-117965057D02*
X121524874Y-118060295D01*
X121524874Y-118060295D02*
X121572493Y-118250771D01*
X121572493Y-118250771D02*
X121572493Y-118488866D01*
X121572493Y-118488866D02*
X121524874Y-118679342D01*
X121524874Y-118679342D02*
X121477255Y-118774580D01*
X121477255Y-118774580D02*
X121429636Y-118822200D01*
X121429636Y-118822200D02*
X121334398Y-118869819D01*
X121334398Y-118869819D02*
X121239160Y-118869819D01*
X121239160Y-118869819D02*
X121143922Y-118822200D01*
X121143922Y-118822200D02*
X121096303Y-118774580D01*
X121096303Y-118774580D02*
X121048684Y-118679342D01*
X121048684Y-118679342D02*
X121001065Y-118488866D01*
X121001065Y-118488866D02*
X121001065Y-118250771D01*
X121001065Y-118250771D02*
X121048684Y-118060295D01*
X121048684Y-118060295D02*
X121096303Y-117965057D01*
X121096303Y-117965057D02*
X121143922Y-117917438D01*
X121143922Y-117917438D02*
X121239160Y-117869819D01*
X122001065Y-118774580D02*
X122048684Y-118822200D01*
X122048684Y-118822200D02*
X122001065Y-118869819D01*
X122001065Y-118869819D02*
X121953446Y-118822200D01*
X121953446Y-118822200D02*
X122001065Y-118774580D01*
X122001065Y-118774580D02*
X122001065Y-118869819D01*
X122429636Y-117965057D02*
X122477255Y-117917438D01*
X122477255Y-117917438D02*
X122572493Y-117869819D01*
X122572493Y-117869819D02*
X122810588Y-117869819D01*
X122810588Y-117869819D02*
X122905826Y-117917438D01*
X122905826Y-117917438D02*
X122953445Y-117965057D01*
X122953445Y-117965057D02*
X123001064Y-118060295D01*
X123001064Y-118060295D02*
X123001064Y-118155533D01*
X123001064Y-118155533D02*
X122953445Y-118298390D01*
X122953445Y-118298390D02*
X122382017Y-118869819D01*
X122382017Y-118869819D02*
X123001064Y-118869819D01*
X124143922Y-117965057D02*
X124191541Y-117917438D01*
X124191541Y-117917438D02*
X124286779Y-117869819D01*
X124286779Y-117869819D02*
X124524874Y-117869819D01*
X124524874Y-117869819D02*
X124620112Y-117917438D01*
X124620112Y-117917438D02*
X124667731Y-117965057D01*
X124667731Y-117965057D02*
X124715350Y-118060295D01*
X124715350Y-118060295D02*
X124715350Y-118155533D01*
X124715350Y-118155533D02*
X124667731Y-118298390D01*
X124667731Y-118298390D02*
X124096303Y-118869819D01*
X124096303Y-118869819D02*
X124715350Y-118869819D01*
X125334398Y-117869819D02*
X125429636Y-117869819D01*
X125429636Y-117869819D02*
X125524874Y-117917438D01*
X125524874Y-117917438D02*
X125572493Y-117965057D01*
X125572493Y-117965057D02*
X125620112Y-118060295D01*
X125620112Y-118060295D02*
X125667731Y-118250771D01*
X125667731Y-118250771D02*
X125667731Y-118488866D01*
X125667731Y-118488866D02*
X125620112Y-118679342D01*
X125620112Y-118679342D02*
X125572493Y-118774580D01*
X125572493Y-118774580D02*
X125524874Y-118822200D01*
X125524874Y-118822200D02*
X125429636Y-118869819D01*
X125429636Y-118869819D02*
X125334398Y-118869819D01*
X125334398Y-118869819D02*
X125239160Y-118822200D01*
X125239160Y-118822200D02*
X125191541Y-118774580D01*
X125191541Y-118774580D02*
X125143922Y-118679342D01*
X125143922Y-118679342D02*
X125096303Y-118488866D01*
X125096303Y-118488866D02*
X125096303Y-118250771D01*
X125096303Y-118250771D02*
X125143922Y-118060295D01*
X125143922Y-118060295D02*
X125191541Y-117965057D01*
X125191541Y-117965057D02*
X125239160Y-117917438D01*
X125239160Y-117917438D02*
X125334398Y-117869819D01*
X126048684Y-117965057D02*
X126096303Y-117917438D01*
X126096303Y-117917438D02*
X126191541Y-117869819D01*
X126191541Y-117869819D02*
X126429636Y-117869819D01*
X126429636Y-117869819D02*
X126524874Y-117917438D01*
X126524874Y-117917438D02*
X126572493Y-117965057D01*
X126572493Y-117965057D02*
X126620112Y-118060295D01*
X126620112Y-118060295D02*
X126620112Y-118155533D01*
X126620112Y-118155533D02*
X126572493Y-118298390D01*
X126572493Y-118298390D02*
X126001065Y-118869819D01*
X126001065Y-118869819D02*
X126620112Y-118869819D01*
X127477255Y-118203152D02*
X127477255Y-118869819D01*
X127239160Y-117822200D02*
X127001065Y-118536485D01*
X127001065Y-118536485D02*
X127620112Y-118536485D01*
D12*
X138950000Y-134000000D02*
G75*
G02*
X133550000Y-134000000I-2700000J0D01*
G01*
X133550000Y-134000000D02*
G75*
G02*
X138950000Y-134000000I2700000J0D01*
G01*
X121950000Y-134000000D02*
G75*
G02*
X116550000Y-134000000I-2700000J0D01*
G01*
X116550000Y-134000000D02*
G75*
G02*
X121950000Y-134000000I2700000J0D01*
G01*
%LPC*%
D13*
X115500000Y-90000000D03*
X140000000Y-90000000D03*
X140000000Y-141500000D03*
X115500000Y-141500000D03*
D14*
X136250000Y-134000000D03*
X119250000Y-134000000D03*
D15*
X125862500Y-94157500D03*
D16*
X129672500Y-94157500D03*
%LPD*%
M02*
