%TF.GenerationSoftware,KiCad,Pcbnew,8.0.3*%
%TF.CreationDate,2024-08-26T20:19:17+02:00*%
%TF.ProjectId,battEliminator,62617474-456c-4696-9d69-6e61746f722e,0.1*%
%TF.SameCoordinates,Original*%
%TF.FileFunction,Drillmap*%
%TF.FilePolarity,Positive*%
%FSLAX45Y45*%
G04 Gerber Fmt 4.5, Leading zero omitted, Abs format (unit mm)*
G04 Created by KiCad (PCBNEW 8.0.3) date 2024-08-26 20:19:17*
%MOMM*%
%LPD*%
G01*
G04 APERTURE LIST*
%ADD10C,0.100000*%
%ADD11C,0.200000*%
%ADD12C,0.120000*%
G04 APERTURE END LIST*
D10*
X11225000Y-8675000D02*
X14325000Y-8675000D01*
X14325000Y-14475000D01*
X11225000Y-14475000D01*
X11225000Y-8675000D01*
D11*
D10*
X11343786Y-9308500D02*
X11383786Y-9348500D01*
X11383786Y-9308500D02*
X11343786Y-9348500D01*
X11343786Y-9562500D02*
X11383786Y-9602500D01*
X11383786Y-9562500D02*
X11343786Y-9602500D01*
X11343786Y-9816500D02*
X11383786Y-9856500D01*
X11383786Y-9816500D02*
X11343786Y-9856500D01*
X11343786Y-10070500D02*
X11383786Y-10110500D01*
X11383786Y-10070500D02*
X11343786Y-10110500D01*
X11343786Y-10324500D02*
X11383786Y-10364500D01*
X11383786Y-10324500D02*
X11343786Y-10364500D01*
X11343786Y-10578500D02*
X11383786Y-10618500D01*
X11383786Y-10578500D02*
X11343786Y-10618500D01*
X11343786Y-10832500D02*
X11383786Y-10872500D01*
X11383786Y-10832500D02*
X11343786Y-10872500D01*
X11343786Y-11086500D02*
X11383786Y-11126500D01*
X11383786Y-11086500D02*
X11343786Y-11126500D01*
X11343786Y-11340500D02*
X11383786Y-11380500D01*
X11383786Y-11340500D02*
X11343786Y-11380500D01*
X11343786Y-11594500D02*
X11383786Y-11634500D01*
X11383786Y-11594500D02*
X11343786Y-11634500D01*
X11343786Y-11848500D02*
X11383786Y-11888500D01*
X11383786Y-11848500D02*
X11343786Y-11888500D01*
X11343786Y-12102500D02*
X11383786Y-12142500D01*
X11383786Y-12102500D02*
X11343786Y-12142500D01*
X11343786Y-12356500D02*
X11383786Y-12396500D01*
X11383786Y-12356500D02*
X11343786Y-12396500D01*
X11343786Y-12610500D02*
X11383786Y-12650500D01*
X11383786Y-12610500D02*
X11343786Y-12650500D01*
X11343786Y-12864500D02*
X11383786Y-12904500D01*
X11383786Y-12864500D02*
X11343786Y-12904500D01*
X11343786Y-13118500D02*
X11383786Y-13158500D01*
X11383786Y-13118500D02*
X11343786Y-13158500D01*
X11343786Y-13372500D02*
X11383786Y-13412500D01*
X11383786Y-13372500D02*
X11343786Y-13412500D01*
X11343786Y-13626500D02*
X11383786Y-13666500D01*
X11383786Y-13626500D02*
X11343786Y-13666500D01*
X11343786Y-13880500D02*
X11383786Y-13920500D01*
X11383786Y-13880500D02*
X11343786Y-13920500D01*
X11597786Y-9308500D02*
X11637786Y-9348500D01*
X11637786Y-9308500D02*
X11597786Y-9348500D01*
X11597786Y-9562500D02*
X11637786Y-9602500D01*
X11637786Y-9562500D02*
X11597786Y-9602500D01*
X11597786Y-9816500D02*
X11637786Y-9856500D01*
X11637786Y-9816500D02*
X11597786Y-9856500D01*
X11597786Y-10070500D02*
X11637786Y-10110500D01*
X11637786Y-10070500D02*
X11597786Y-10110500D01*
X11597786Y-10324500D02*
X11637786Y-10364500D01*
X11637786Y-10324500D02*
X11597786Y-10364500D01*
X11597786Y-10578500D02*
X11637786Y-10618500D01*
X11637786Y-10578500D02*
X11597786Y-10618500D01*
X11597786Y-10832500D02*
X11637786Y-10872500D01*
X11637786Y-10832500D02*
X11597786Y-10872500D01*
X11597786Y-11086500D02*
X11637786Y-11126500D01*
X11637786Y-11086500D02*
X11597786Y-11126500D01*
X11597786Y-11340500D02*
X11637786Y-11380500D01*
X11637786Y-11340500D02*
X11597786Y-11380500D01*
X11597786Y-11594500D02*
X11637786Y-11634500D01*
X11637786Y-11594500D02*
X11597786Y-11634500D01*
X11597786Y-11848500D02*
X11637786Y-11888500D01*
X11637786Y-11848500D02*
X11597786Y-11888500D01*
X11597786Y-12102500D02*
X11637786Y-12142500D01*
X11637786Y-12102500D02*
X11597786Y-12142500D01*
X11597786Y-12356500D02*
X11637786Y-12396500D01*
X11637786Y-12356500D02*
X11597786Y-12396500D01*
X11597786Y-12610500D02*
X11637786Y-12650500D01*
X11637786Y-12610500D02*
X11597786Y-12650500D01*
X11597786Y-12864500D02*
X11637786Y-12904500D01*
X11637786Y-12864500D02*
X11597786Y-12904500D01*
X11597786Y-13118500D02*
X11637786Y-13158500D01*
X11637786Y-13118500D02*
X11597786Y-13158500D01*
X11597786Y-13372500D02*
X11637786Y-13412500D01*
X11637786Y-13372500D02*
X11597786Y-13412500D01*
X11597786Y-13626500D02*
X11637786Y-13666500D01*
X11637786Y-13626500D02*
X11597786Y-13666500D01*
X11851786Y-8800500D02*
X11891786Y-8840500D01*
X11891786Y-8800500D02*
X11851786Y-8840500D01*
X11851786Y-9054500D02*
X11891786Y-9094500D01*
X11891786Y-9054500D02*
X11851786Y-9094500D01*
X11851786Y-9308500D02*
X11891786Y-9348500D01*
X11891786Y-9308500D02*
X11851786Y-9348500D01*
X11851786Y-9562500D02*
X11891786Y-9602500D01*
X11891786Y-9562500D02*
X11851786Y-9602500D01*
X11851786Y-9816500D02*
X11891786Y-9856500D01*
X11891786Y-9816500D02*
X11851786Y-9856500D01*
X11851786Y-10070500D02*
X11891786Y-10110500D01*
X11891786Y-10070500D02*
X11851786Y-10110500D01*
X11851786Y-10324500D02*
X11891786Y-10364500D01*
X11891786Y-10324500D02*
X11851786Y-10364500D01*
X11851786Y-10578500D02*
X11891786Y-10618500D01*
X11891786Y-10578500D02*
X11851786Y-10618500D01*
X11851786Y-12610500D02*
X11891786Y-12650500D01*
X11891786Y-12610500D02*
X11851786Y-12650500D01*
X11851786Y-13372500D02*
X11891786Y-13412500D01*
X11891786Y-13372500D02*
X11851786Y-13412500D01*
X11851786Y-13626500D02*
X11891786Y-13666500D01*
X11891786Y-13626500D02*
X11851786Y-13666500D01*
X11851786Y-13880500D02*
X11891786Y-13920500D01*
X11891786Y-13880500D02*
X11851786Y-13920500D01*
X11851786Y-14134500D02*
X11891786Y-14174500D01*
X11891786Y-14134500D02*
X11851786Y-14174500D01*
X11885000Y-11275000D02*
X11925000Y-11315000D01*
X11925000Y-11275000D02*
X11885000Y-11315000D01*
X12030000Y-11210000D02*
X12070000Y-11250000D01*
X12070000Y-11210000D02*
X12030000Y-11250000D01*
X12105786Y-8800500D02*
X12145786Y-8840500D01*
X12145786Y-8800500D02*
X12105786Y-8840500D01*
X12105786Y-9054500D02*
X12145786Y-9094500D01*
X12145786Y-9054500D02*
X12105786Y-9094500D01*
X12105786Y-9308500D02*
X12145786Y-9348500D01*
X12145786Y-9308500D02*
X12105786Y-9348500D01*
X12105786Y-9562500D02*
X12145786Y-9602500D01*
X12145786Y-9562500D02*
X12105786Y-9602500D01*
X12105786Y-9816500D02*
X12145786Y-9856500D01*
X12145786Y-9816500D02*
X12105786Y-9856500D01*
X12105786Y-10070500D02*
X12145786Y-10110500D01*
X12145786Y-10070500D02*
X12105786Y-10110500D01*
X12105786Y-10324500D02*
X12145786Y-10364500D01*
X12145786Y-10324500D02*
X12105786Y-10364500D01*
X12105786Y-12102500D02*
X12145786Y-12142500D01*
X12145786Y-12102500D02*
X12105786Y-12142500D01*
X12105786Y-12356500D02*
X12145786Y-12396500D01*
X12145786Y-12356500D02*
X12105786Y-12396500D01*
X12105786Y-12610500D02*
X12145786Y-12650500D01*
X12145786Y-12610500D02*
X12105786Y-12650500D01*
X12105786Y-13372500D02*
X12145786Y-13412500D01*
X12145786Y-13372500D02*
X12105786Y-13412500D01*
X12105786Y-13626500D02*
X12145786Y-13666500D01*
X12145786Y-13626500D02*
X12105786Y-13666500D01*
X12105786Y-13880500D02*
X12145786Y-13920500D01*
X12145786Y-13880500D02*
X12105786Y-13920500D01*
X12105786Y-14134500D02*
X12145786Y-14174500D01*
X12145786Y-14134500D02*
X12105786Y-14174500D01*
X12310000Y-12820000D02*
X12350000Y-12860000D01*
X12350000Y-12820000D02*
X12310000Y-12860000D01*
X12310000Y-12950000D02*
X12350000Y-12990000D01*
X12350000Y-12950000D02*
X12310000Y-12990000D01*
X12310000Y-13060000D02*
X12350000Y-13100000D01*
X12350000Y-13060000D02*
X12310000Y-13100000D01*
X12315000Y-13165000D02*
X12355000Y-13205000D01*
X12355000Y-13165000D02*
X12315000Y-13205000D01*
X12359786Y-8800500D02*
X12399786Y-8840500D01*
X12399786Y-8800500D02*
X12359786Y-8840500D01*
X12359786Y-9054500D02*
X12399786Y-9094500D01*
X12399786Y-9054500D02*
X12359786Y-9094500D01*
X12359786Y-9308500D02*
X12399786Y-9348500D01*
X12399786Y-9308500D02*
X12359786Y-9348500D01*
X12359786Y-9562500D02*
X12399786Y-9602500D01*
X12399786Y-9562500D02*
X12359786Y-9602500D01*
X12359786Y-9816500D02*
X12399786Y-9856500D01*
X12399786Y-9816500D02*
X12359786Y-9856500D01*
X12359786Y-13372500D02*
X12399786Y-13412500D01*
X12399786Y-13372500D02*
X12359786Y-13412500D01*
X12359786Y-13626500D02*
X12399786Y-13666500D01*
X12399786Y-13626500D02*
X12359786Y-13666500D01*
X12359786Y-13880500D02*
X12399786Y-13920500D01*
X12399786Y-13880500D02*
X12359786Y-13920500D01*
X12359786Y-14134500D02*
X12399786Y-14174500D01*
X12399786Y-14134500D02*
X12359786Y-14174500D01*
X12365000Y-11445000D02*
X12405000Y-11485000D01*
X12405000Y-11445000D02*
X12365000Y-11485000D01*
X12367206Y-11231480D02*
X12407206Y-11271480D01*
X12407206Y-11231480D02*
X12367206Y-11271480D01*
X12420000Y-10640000D02*
X12460000Y-10680000D01*
X12460000Y-10640000D02*
X12420000Y-10680000D01*
X12490000Y-11230000D02*
X12530000Y-11270000D01*
X12530000Y-11230000D02*
X12490000Y-11270000D01*
X12490000Y-11340000D02*
X12530000Y-11380000D01*
X12530000Y-11340000D02*
X12490000Y-11380000D01*
X12490000Y-11450000D02*
X12530000Y-11490000D01*
X12530000Y-11450000D02*
X12490000Y-11490000D01*
X12540000Y-10640000D02*
X12580000Y-10680000D01*
X12580000Y-10640000D02*
X12540000Y-10680000D01*
X12613786Y-8800500D02*
X12653786Y-8840500D01*
X12653786Y-8800500D02*
X12613786Y-8840500D01*
X12613786Y-9054500D02*
X12653786Y-9094500D01*
X12653786Y-9054500D02*
X12613786Y-9094500D01*
X12613786Y-9816500D02*
X12653786Y-9856500D01*
X12653786Y-9816500D02*
X12613786Y-9856500D01*
X12613786Y-13372500D02*
X12653786Y-13412500D01*
X12653786Y-13372500D02*
X12613786Y-13412500D01*
X12613786Y-13626500D02*
X12653786Y-13666500D01*
X12653786Y-13626500D02*
X12613786Y-13666500D01*
X12613786Y-13880500D02*
X12653786Y-13920500D01*
X12653786Y-13880500D02*
X12613786Y-13920500D01*
X12613786Y-14134500D02*
X12653786Y-14174500D01*
X12653786Y-14134500D02*
X12613786Y-14174500D01*
X12695000Y-12035000D02*
X12735000Y-12075000D01*
X12735000Y-12035000D02*
X12695000Y-12075000D01*
X12805000Y-12025000D02*
X12845000Y-12065000D01*
X12845000Y-12025000D02*
X12805000Y-12065000D01*
X12867786Y-8800500D02*
X12907786Y-8840500D01*
X12907786Y-8800500D02*
X12867786Y-8840500D01*
X12867786Y-9054500D02*
X12907786Y-9094500D01*
X12907786Y-9054500D02*
X12867786Y-9094500D01*
X12867786Y-12356500D02*
X12907786Y-12396500D01*
X12907786Y-12356500D02*
X12867786Y-12396500D01*
X12867786Y-13372500D02*
X12907786Y-13412500D01*
X12907786Y-13372500D02*
X12867786Y-13412500D01*
X12867786Y-13626500D02*
X12907786Y-13666500D01*
X12907786Y-13626500D02*
X12867786Y-13666500D01*
X12867786Y-13880500D02*
X12907786Y-13920500D01*
X12907786Y-13880500D02*
X12867786Y-13920500D01*
X12867786Y-14134500D02*
X12907786Y-14174500D01*
X12907786Y-14134500D02*
X12867786Y-14174500D01*
X13121786Y-8800500D02*
X13161786Y-8840500D01*
X13161786Y-8800500D02*
X13121786Y-8840500D01*
X13121786Y-9054500D02*
X13161786Y-9094500D01*
X13161786Y-9054500D02*
X13121786Y-9094500D01*
X13121786Y-9816500D02*
X13161786Y-9856500D01*
X13161786Y-9816500D02*
X13121786Y-9856500D01*
X13121786Y-11594500D02*
X13161786Y-11634500D01*
X13161786Y-11594500D02*
X13121786Y-11634500D01*
X13121786Y-12356500D02*
X13161786Y-12396500D01*
X13161786Y-12356500D02*
X13121786Y-12396500D01*
X13121786Y-13372500D02*
X13161786Y-13412500D01*
X13161786Y-13372500D02*
X13121786Y-13412500D01*
X13121786Y-13880500D02*
X13161786Y-13920500D01*
X13161786Y-13880500D02*
X13121786Y-13920500D01*
X13121786Y-14134500D02*
X13161786Y-14174500D01*
X13161786Y-14134500D02*
X13121786Y-14174500D01*
X13375786Y-8800500D02*
X13415786Y-8840500D01*
X13415786Y-8800500D02*
X13375786Y-8840500D01*
X13375786Y-9054500D02*
X13415786Y-9094500D01*
X13415786Y-9054500D02*
X13375786Y-9094500D01*
X13375786Y-9308500D02*
X13415786Y-9348500D01*
X13415786Y-9308500D02*
X13375786Y-9348500D01*
X13375786Y-9562500D02*
X13415786Y-9602500D01*
X13415786Y-9562500D02*
X13375786Y-9602500D01*
X13375786Y-9816500D02*
X13415786Y-9856500D01*
X13415786Y-9816500D02*
X13375786Y-9856500D01*
X13375786Y-10070500D02*
X13415786Y-10110500D01*
X13415786Y-10070500D02*
X13375786Y-10110500D01*
X13375786Y-10324500D02*
X13415786Y-10364500D01*
X13415786Y-10324500D02*
X13375786Y-10364500D01*
X13375786Y-11594500D02*
X13415786Y-11634500D01*
X13415786Y-11594500D02*
X13375786Y-11634500D01*
X13375786Y-11848500D02*
X13415786Y-11888500D01*
X13415786Y-11848500D02*
X13375786Y-11888500D01*
X13375786Y-13372500D02*
X13415786Y-13412500D01*
X13415786Y-13372500D02*
X13375786Y-13412500D01*
X13375786Y-13880500D02*
X13415786Y-13920500D01*
X13415786Y-13880500D02*
X13375786Y-13920500D01*
X13375786Y-14134500D02*
X13415786Y-14174500D01*
X13415786Y-14134500D02*
X13375786Y-14174500D01*
X13629786Y-8800500D02*
X13669786Y-8840500D01*
X13669786Y-8800500D02*
X13629786Y-8840500D01*
X13629786Y-9054500D02*
X13669786Y-9094500D01*
X13669786Y-9054500D02*
X13629786Y-9094500D01*
X13629786Y-9308500D02*
X13669786Y-9348500D01*
X13669786Y-9308500D02*
X13629786Y-9348500D01*
X13629786Y-9562500D02*
X13669786Y-9602500D01*
X13669786Y-9562500D02*
X13629786Y-9602500D01*
X13629786Y-9816500D02*
X13669786Y-9856500D01*
X13669786Y-9816500D02*
X13629786Y-9856500D01*
X13629786Y-10070500D02*
X13669786Y-10110500D01*
X13669786Y-10070500D02*
X13629786Y-10110500D01*
X13629786Y-10324500D02*
X13669786Y-10364500D01*
X13669786Y-10324500D02*
X13629786Y-10364500D01*
X13629786Y-11594500D02*
X13669786Y-11634500D01*
X13669786Y-11594500D02*
X13629786Y-11634500D01*
X13629786Y-11848500D02*
X13669786Y-11888500D01*
X13669786Y-11848500D02*
X13629786Y-11888500D01*
X13629786Y-12102500D02*
X13669786Y-12142500D01*
X13669786Y-12102500D02*
X13629786Y-12142500D01*
X13629786Y-12356500D02*
X13669786Y-12396500D01*
X13669786Y-12356500D02*
X13629786Y-12396500D01*
X13629786Y-12610500D02*
X13669786Y-12650500D01*
X13669786Y-12610500D02*
X13629786Y-12650500D01*
X13629786Y-13372500D02*
X13669786Y-13412500D01*
X13669786Y-13372500D02*
X13629786Y-13412500D01*
X13629786Y-13626500D02*
X13669786Y-13666500D01*
X13669786Y-13626500D02*
X13629786Y-13666500D01*
X13629786Y-13880500D02*
X13669786Y-13920500D01*
X13669786Y-13880500D02*
X13629786Y-13920500D01*
X13629786Y-14134500D02*
X13669786Y-14174500D01*
X13669786Y-14134500D02*
X13629786Y-14174500D01*
X13883786Y-9308500D02*
X13923786Y-9348500D01*
X13923786Y-9308500D02*
X13883786Y-9348500D01*
X13883786Y-9562500D02*
X13923786Y-9602500D01*
X13923786Y-9562500D02*
X13883786Y-9602500D01*
X13883786Y-9816500D02*
X13923786Y-9856500D01*
X13923786Y-9816500D02*
X13883786Y-9856500D01*
X13883786Y-10070500D02*
X13923786Y-10110500D01*
X13923786Y-10070500D02*
X13883786Y-10110500D01*
X13883786Y-10324500D02*
X13923786Y-10364500D01*
X13923786Y-10324500D02*
X13883786Y-10364500D01*
X13883786Y-10578500D02*
X13923786Y-10618500D01*
X13923786Y-10578500D02*
X13883786Y-10618500D01*
X13883786Y-10832500D02*
X13923786Y-10872500D01*
X13923786Y-10832500D02*
X13883786Y-10872500D01*
X13883786Y-11086500D02*
X13923786Y-11126500D01*
X13923786Y-11086500D02*
X13883786Y-11126500D01*
X13883786Y-11340500D02*
X13923786Y-11380500D01*
X13923786Y-11340500D02*
X13883786Y-11380500D01*
X13883786Y-11594500D02*
X13923786Y-11634500D01*
X13923786Y-11594500D02*
X13883786Y-11634500D01*
X13883786Y-11848500D02*
X13923786Y-11888500D01*
X13923786Y-11848500D02*
X13883786Y-11888500D01*
X13883786Y-12102500D02*
X13923786Y-12142500D01*
X13923786Y-12102500D02*
X13883786Y-12142500D01*
X13883786Y-12356500D02*
X13923786Y-12396500D01*
X13923786Y-12356500D02*
X13883786Y-12396500D01*
X13883786Y-12610500D02*
X13923786Y-12650500D01*
X13923786Y-12610500D02*
X13883786Y-12650500D01*
X13883786Y-12864500D02*
X13923786Y-12904500D01*
X13923786Y-12864500D02*
X13883786Y-12904500D01*
X13883786Y-13118500D02*
X13923786Y-13158500D01*
X13923786Y-13118500D02*
X13883786Y-13158500D01*
X13883786Y-13372500D02*
X13923786Y-13412500D01*
X13923786Y-13372500D02*
X13883786Y-13412500D01*
X13883786Y-13626500D02*
X13923786Y-13666500D01*
X13923786Y-13626500D02*
X13883786Y-13666500D01*
X14137786Y-9308500D02*
X14177786Y-9348500D01*
X14177786Y-9308500D02*
X14137786Y-9348500D01*
X14137786Y-9562500D02*
X14177786Y-9602500D01*
X14177786Y-9562500D02*
X14137786Y-9602500D01*
X14137786Y-9816500D02*
X14177786Y-9856500D01*
X14177786Y-9816500D02*
X14137786Y-9856500D01*
X14137786Y-10070500D02*
X14177786Y-10110500D01*
X14177786Y-10070500D02*
X14137786Y-10110500D01*
X14137786Y-10324500D02*
X14177786Y-10364500D01*
X14177786Y-10324500D02*
X14137786Y-10364500D01*
X14137786Y-10578500D02*
X14177786Y-10618500D01*
X14177786Y-10578500D02*
X14137786Y-10618500D01*
X14137786Y-10832500D02*
X14177786Y-10872500D01*
X14177786Y-10832500D02*
X14137786Y-10872500D01*
X14137786Y-11086500D02*
X14177786Y-11126500D01*
X14177786Y-11086500D02*
X14137786Y-11126500D01*
X14137786Y-11340500D02*
X14177786Y-11380500D01*
X14177786Y-11340500D02*
X14137786Y-11380500D01*
X14137786Y-11594500D02*
X14177786Y-11634500D01*
X14177786Y-11594500D02*
X14137786Y-11634500D01*
X14137786Y-11848500D02*
X14177786Y-11888500D01*
X14177786Y-11848500D02*
X14137786Y-11888500D01*
X14137786Y-12102500D02*
X14177786Y-12142500D01*
X14177786Y-12102500D02*
X14137786Y-12142500D01*
X14137786Y-12356500D02*
X14177786Y-12396500D01*
X14177786Y-12356500D02*
X14137786Y-12396500D01*
X14137786Y-12610500D02*
X14177786Y-12650500D01*
X14177786Y-12610500D02*
X14137786Y-12650500D01*
X14137786Y-12864500D02*
X14177786Y-12904500D01*
X14177786Y-12864500D02*
X14137786Y-12904500D01*
X14137786Y-13118500D02*
X14177786Y-13158500D01*
X14177786Y-13118500D02*
X14137786Y-13158500D01*
X14137786Y-13372500D02*
X14177786Y-13412500D01*
X14177786Y-13372500D02*
X14137786Y-13412500D01*
X14137786Y-13626500D02*
X14177786Y-13666500D01*
X14177786Y-13626500D02*
X14137786Y-13666500D01*
X14137786Y-13880500D02*
X14177786Y-13920500D01*
X14177786Y-13880500D02*
X14137786Y-13920500D01*
D12*
X12646250Y-9415750D02*
G75*
G02*
X12526250Y-9415750I-60000J0D01*
G01*
X12526250Y-9415750D02*
G75*
G02*
X12646250Y-9415750I60000J0D01*
G01*
X13027250Y-9415750D02*
G75*
G02*
X12907250Y-9415750I-60000J0D01*
G01*
X12907250Y-9415750D02*
G75*
G02*
X13027250Y-9415750I60000J0D01*
G01*
D11*
X11480777Y-14791484D02*
X11480777Y-14591484D01*
X11480777Y-14591484D02*
X11528396Y-14591484D01*
X11528396Y-14591484D02*
X11556967Y-14601008D01*
X11556967Y-14601008D02*
X11576015Y-14620055D01*
X11576015Y-14620055D02*
X11585539Y-14639103D01*
X11585539Y-14639103D02*
X11595062Y-14677198D01*
X11595062Y-14677198D02*
X11595062Y-14705769D01*
X11595062Y-14705769D02*
X11585539Y-14743865D01*
X11585539Y-14743865D02*
X11576015Y-14762912D01*
X11576015Y-14762912D02*
X11556967Y-14781960D01*
X11556967Y-14781960D02*
X11528396Y-14791484D01*
X11528396Y-14791484D02*
X11480777Y-14791484D01*
X11680777Y-14791484D02*
X11680777Y-14658150D01*
X11680777Y-14696246D02*
X11690301Y-14677198D01*
X11690301Y-14677198D02*
X11699824Y-14667674D01*
X11699824Y-14667674D02*
X11718872Y-14658150D01*
X11718872Y-14658150D02*
X11737920Y-14658150D01*
X11804586Y-14791484D02*
X11804586Y-14658150D01*
X11804586Y-14591484D02*
X11795062Y-14601008D01*
X11795062Y-14601008D02*
X11804586Y-14610531D01*
X11804586Y-14610531D02*
X11814110Y-14601008D01*
X11814110Y-14601008D02*
X11804586Y-14591484D01*
X11804586Y-14591484D02*
X11804586Y-14610531D01*
X11928396Y-14791484D02*
X11909348Y-14781960D01*
X11909348Y-14781960D02*
X11899824Y-14762912D01*
X11899824Y-14762912D02*
X11899824Y-14591484D01*
X12033158Y-14791484D02*
X12014110Y-14781960D01*
X12014110Y-14781960D02*
X12004586Y-14762912D01*
X12004586Y-14762912D02*
X12004586Y-14591484D01*
X12261729Y-14791484D02*
X12261729Y-14591484D01*
X12261729Y-14591484D02*
X12328396Y-14734341D01*
X12328396Y-14734341D02*
X12395062Y-14591484D01*
X12395062Y-14591484D02*
X12395062Y-14791484D01*
X12576015Y-14791484D02*
X12576015Y-14686722D01*
X12576015Y-14686722D02*
X12566491Y-14667674D01*
X12566491Y-14667674D02*
X12547443Y-14658150D01*
X12547443Y-14658150D02*
X12509348Y-14658150D01*
X12509348Y-14658150D02*
X12490301Y-14667674D01*
X12576015Y-14781960D02*
X12556967Y-14791484D01*
X12556967Y-14791484D02*
X12509348Y-14791484D01*
X12509348Y-14791484D02*
X12490301Y-14781960D01*
X12490301Y-14781960D02*
X12480777Y-14762912D01*
X12480777Y-14762912D02*
X12480777Y-14743865D01*
X12480777Y-14743865D02*
X12490301Y-14724817D01*
X12490301Y-14724817D02*
X12509348Y-14715293D01*
X12509348Y-14715293D02*
X12556967Y-14715293D01*
X12556967Y-14715293D02*
X12576015Y-14705769D01*
X12671253Y-14658150D02*
X12671253Y-14858150D01*
X12671253Y-14667674D02*
X12690301Y-14658150D01*
X12690301Y-14658150D02*
X12728396Y-14658150D01*
X12728396Y-14658150D02*
X12747443Y-14667674D01*
X12747443Y-14667674D02*
X12756967Y-14677198D01*
X12756967Y-14677198D02*
X12766491Y-14696246D01*
X12766491Y-14696246D02*
X12766491Y-14753388D01*
X12766491Y-14753388D02*
X12756967Y-14772436D01*
X12756967Y-14772436D02*
X12747443Y-14781960D01*
X12747443Y-14781960D02*
X12728396Y-14791484D01*
X12728396Y-14791484D02*
X12690301Y-14791484D01*
X12690301Y-14791484D02*
X12671253Y-14781960D01*
X12852205Y-14772436D02*
X12861729Y-14781960D01*
X12861729Y-14781960D02*
X12852205Y-14791484D01*
X12852205Y-14791484D02*
X12842682Y-14781960D01*
X12842682Y-14781960D02*
X12852205Y-14772436D01*
X12852205Y-14772436D02*
X12852205Y-14791484D01*
X12852205Y-14667674D02*
X12861729Y-14677198D01*
X12861729Y-14677198D02*
X12852205Y-14686722D01*
X12852205Y-14686722D02*
X12842682Y-14677198D01*
X12842682Y-14677198D02*
X12852205Y-14667674D01*
X12852205Y-14667674D02*
X12852205Y-14686722D01*
D10*
X11180000Y-15100000D02*
X11220000Y-15140000D01*
X11220000Y-15100000D02*
X11180000Y-15140000D01*
D11*
X11518872Y-15011484D02*
X11537920Y-15011484D01*
X11537920Y-15011484D02*
X11556967Y-15021008D01*
X11556967Y-15021008D02*
X11566491Y-15030531D01*
X11566491Y-15030531D02*
X11576015Y-15049579D01*
X11576015Y-15049579D02*
X11585539Y-15087674D01*
X11585539Y-15087674D02*
X11585539Y-15135293D01*
X11585539Y-15135293D02*
X11576015Y-15173388D01*
X11576015Y-15173388D02*
X11566491Y-15192436D01*
X11566491Y-15192436D02*
X11556967Y-15201960D01*
X11556967Y-15201960D02*
X11537920Y-15211484D01*
X11537920Y-15211484D02*
X11518872Y-15211484D01*
X11518872Y-15211484D02*
X11499824Y-15201960D01*
X11499824Y-15201960D02*
X11490301Y-15192436D01*
X11490301Y-15192436D02*
X11480777Y-15173388D01*
X11480777Y-15173388D02*
X11471253Y-15135293D01*
X11471253Y-15135293D02*
X11471253Y-15087674D01*
X11471253Y-15087674D02*
X11480777Y-15049579D01*
X11480777Y-15049579D02*
X11490301Y-15030531D01*
X11490301Y-15030531D02*
X11499824Y-15021008D01*
X11499824Y-15021008D02*
X11518872Y-15011484D01*
X11671253Y-15192436D02*
X11680777Y-15201960D01*
X11680777Y-15201960D02*
X11671253Y-15211484D01*
X11671253Y-15211484D02*
X11661729Y-15201960D01*
X11661729Y-15201960D02*
X11671253Y-15192436D01*
X11671253Y-15192436D02*
X11671253Y-15211484D01*
X11852205Y-15078150D02*
X11852205Y-15211484D01*
X11804586Y-15001960D02*
X11756967Y-15144817D01*
X11756967Y-15144817D02*
X11880777Y-15144817D01*
X11995062Y-15011484D02*
X12014110Y-15011484D01*
X12014110Y-15011484D02*
X12033158Y-15021008D01*
X12033158Y-15021008D02*
X12042682Y-15030531D01*
X12042682Y-15030531D02*
X12052205Y-15049579D01*
X12052205Y-15049579D02*
X12061729Y-15087674D01*
X12061729Y-15087674D02*
X12061729Y-15135293D01*
X12061729Y-15135293D02*
X12052205Y-15173388D01*
X12052205Y-15173388D02*
X12042682Y-15192436D01*
X12042682Y-15192436D02*
X12033158Y-15201960D01*
X12033158Y-15201960D02*
X12014110Y-15211484D01*
X12014110Y-15211484D02*
X11995062Y-15211484D01*
X11995062Y-15211484D02*
X11976015Y-15201960D01*
X11976015Y-15201960D02*
X11966491Y-15192436D01*
X11966491Y-15192436D02*
X11956967Y-15173388D01*
X11956967Y-15173388D02*
X11947443Y-15135293D01*
X11947443Y-15135293D02*
X11947443Y-15087674D01*
X11947443Y-15087674D02*
X11956967Y-15049579D01*
X11956967Y-15049579D02*
X11966491Y-15030531D01*
X11966491Y-15030531D02*
X11976015Y-15021008D01*
X11976015Y-15021008D02*
X11995062Y-15011484D01*
X12185539Y-15011484D02*
X12204586Y-15011484D01*
X12204586Y-15011484D02*
X12223634Y-15021008D01*
X12223634Y-15021008D02*
X12233158Y-15030531D01*
X12233158Y-15030531D02*
X12242682Y-15049579D01*
X12242682Y-15049579D02*
X12252205Y-15087674D01*
X12252205Y-15087674D02*
X12252205Y-15135293D01*
X12252205Y-15135293D02*
X12242682Y-15173388D01*
X12242682Y-15173388D02*
X12233158Y-15192436D01*
X12233158Y-15192436D02*
X12223634Y-15201960D01*
X12223634Y-15201960D02*
X12204586Y-15211484D01*
X12204586Y-15211484D02*
X12185539Y-15211484D01*
X12185539Y-15211484D02*
X12166491Y-15201960D01*
X12166491Y-15201960D02*
X12156967Y-15192436D01*
X12156967Y-15192436D02*
X12147443Y-15173388D01*
X12147443Y-15173388D02*
X12137920Y-15135293D01*
X12137920Y-15135293D02*
X12137920Y-15087674D01*
X12137920Y-15087674D02*
X12147443Y-15049579D01*
X12147443Y-15049579D02*
X12156967Y-15030531D01*
X12156967Y-15030531D02*
X12166491Y-15021008D01*
X12166491Y-15021008D02*
X12185539Y-15011484D01*
X12337920Y-15211484D02*
X12337920Y-15078150D01*
X12337920Y-15097198D02*
X12347443Y-15087674D01*
X12347443Y-15087674D02*
X12366491Y-15078150D01*
X12366491Y-15078150D02*
X12395063Y-15078150D01*
X12395063Y-15078150D02*
X12414110Y-15087674D01*
X12414110Y-15087674D02*
X12423634Y-15106722D01*
X12423634Y-15106722D02*
X12423634Y-15211484D01*
X12423634Y-15106722D02*
X12433158Y-15087674D01*
X12433158Y-15087674D02*
X12452205Y-15078150D01*
X12452205Y-15078150D02*
X12480777Y-15078150D01*
X12480777Y-15078150D02*
X12499824Y-15087674D01*
X12499824Y-15087674D02*
X12509348Y-15106722D01*
X12509348Y-15106722D02*
X12509348Y-15211484D01*
X12604586Y-15211484D02*
X12604586Y-15078150D01*
X12604586Y-15097198D02*
X12614110Y-15087674D01*
X12614110Y-15087674D02*
X12633158Y-15078150D01*
X12633158Y-15078150D02*
X12661729Y-15078150D01*
X12661729Y-15078150D02*
X12680777Y-15087674D01*
X12680777Y-15087674D02*
X12690301Y-15106722D01*
X12690301Y-15106722D02*
X12690301Y-15211484D01*
X12690301Y-15106722D02*
X12699824Y-15087674D01*
X12699824Y-15087674D02*
X12718872Y-15078150D01*
X12718872Y-15078150D02*
X12747443Y-15078150D01*
X12747443Y-15078150D02*
X12766491Y-15087674D01*
X12766491Y-15087674D02*
X12776015Y-15106722D01*
X12776015Y-15106722D02*
X12776015Y-15211484D01*
X13166491Y-15001960D02*
X12995063Y-15259103D01*
X13423634Y-15011484D02*
X13442682Y-15011484D01*
X13442682Y-15011484D02*
X13461729Y-15021008D01*
X13461729Y-15021008D02*
X13471253Y-15030531D01*
X13471253Y-15030531D02*
X13480777Y-15049579D01*
X13480777Y-15049579D02*
X13490301Y-15087674D01*
X13490301Y-15087674D02*
X13490301Y-15135293D01*
X13490301Y-15135293D02*
X13480777Y-15173388D01*
X13480777Y-15173388D02*
X13471253Y-15192436D01*
X13471253Y-15192436D02*
X13461729Y-15201960D01*
X13461729Y-15201960D02*
X13442682Y-15211484D01*
X13442682Y-15211484D02*
X13423634Y-15211484D01*
X13423634Y-15211484D02*
X13404586Y-15201960D01*
X13404586Y-15201960D02*
X13395063Y-15192436D01*
X13395063Y-15192436D02*
X13385539Y-15173388D01*
X13385539Y-15173388D02*
X13376015Y-15135293D01*
X13376015Y-15135293D02*
X13376015Y-15087674D01*
X13376015Y-15087674D02*
X13385539Y-15049579D01*
X13385539Y-15049579D02*
X13395063Y-15030531D01*
X13395063Y-15030531D02*
X13404586Y-15021008D01*
X13404586Y-15021008D02*
X13423634Y-15011484D01*
X13576015Y-15192436D02*
X13585539Y-15201960D01*
X13585539Y-15201960D02*
X13576015Y-15211484D01*
X13576015Y-15211484D02*
X13566491Y-15201960D01*
X13566491Y-15201960D02*
X13576015Y-15192436D01*
X13576015Y-15192436D02*
X13576015Y-15211484D01*
X13709348Y-15011484D02*
X13728396Y-15011484D01*
X13728396Y-15011484D02*
X13747444Y-15021008D01*
X13747444Y-15021008D02*
X13756967Y-15030531D01*
X13756967Y-15030531D02*
X13766491Y-15049579D01*
X13766491Y-15049579D02*
X13776015Y-15087674D01*
X13776015Y-15087674D02*
X13776015Y-15135293D01*
X13776015Y-15135293D02*
X13766491Y-15173388D01*
X13766491Y-15173388D02*
X13756967Y-15192436D01*
X13756967Y-15192436D02*
X13747444Y-15201960D01*
X13747444Y-15201960D02*
X13728396Y-15211484D01*
X13728396Y-15211484D02*
X13709348Y-15211484D01*
X13709348Y-15211484D02*
X13690301Y-15201960D01*
X13690301Y-15201960D02*
X13680777Y-15192436D01*
X13680777Y-15192436D02*
X13671253Y-15173388D01*
X13671253Y-15173388D02*
X13661729Y-15135293D01*
X13661729Y-15135293D02*
X13661729Y-15087674D01*
X13661729Y-15087674D02*
X13671253Y-15049579D01*
X13671253Y-15049579D02*
X13680777Y-15030531D01*
X13680777Y-15030531D02*
X13690301Y-15021008D01*
X13690301Y-15021008D02*
X13709348Y-15011484D01*
X13966491Y-15211484D02*
X13852206Y-15211484D01*
X13909348Y-15211484D02*
X13909348Y-15011484D01*
X13909348Y-15011484D02*
X13890301Y-15040055D01*
X13890301Y-15040055D02*
X13871253Y-15059103D01*
X13871253Y-15059103D02*
X13852206Y-15068627D01*
X14147444Y-15011484D02*
X14052206Y-15011484D01*
X14052206Y-15011484D02*
X14042682Y-15106722D01*
X14042682Y-15106722D02*
X14052206Y-15097198D01*
X14052206Y-15097198D02*
X14071253Y-15087674D01*
X14071253Y-15087674D02*
X14118872Y-15087674D01*
X14118872Y-15087674D02*
X14137920Y-15097198D01*
X14137920Y-15097198D02*
X14147444Y-15106722D01*
X14147444Y-15106722D02*
X14156967Y-15125769D01*
X14156967Y-15125769D02*
X14156967Y-15173388D01*
X14156967Y-15173388D02*
X14147444Y-15192436D01*
X14147444Y-15192436D02*
X14137920Y-15201960D01*
X14137920Y-15201960D02*
X14118872Y-15211484D01*
X14118872Y-15211484D02*
X14071253Y-15211484D01*
X14071253Y-15211484D02*
X14052206Y-15201960D01*
X14052206Y-15201960D02*
X14042682Y-15192436D01*
X14223634Y-15011484D02*
X14356967Y-15011484D01*
X14356967Y-15011484D02*
X14271253Y-15211484D01*
X14423634Y-15011484D02*
X14423634Y-15049579D01*
X14499825Y-15011484D02*
X14499825Y-15049579D01*
X14795063Y-15287674D02*
X14785539Y-15278150D01*
X14785539Y-15278150D02*
X14766491Y-15249579D01*
X14766491Y-15249579D02*
X14756968Y-15230531D01*
X14756968Y-15230531D02*
X14747444Y-15201960D01*
X14747444Y-15201960D02*
X14737920Y-15154341D01*
X14737920Y-15154341D02*
X14737920Y-15116246D01*
X14737920Y-15116246D02*
X14747444Y-15068627D01*
X14747444Y-15068627D02*
X14756968Y-15040055D01*
X14756968Y-15040055D02*
X14766491Y-15021008D01*
X14766491Y-15021008D02*
X14785539Y-14992436D01*
X14785539Y-14992436D02*
X14795063Y-14982912D01*
X14976015Y-15211484D02*
X14861729Y-15211484D01*
X14918872Y-15211484D02*
X14918872Y-15011484D01*
X14918872Y-15011484D02*
X14899825Y-15040055D01*
X14899825Y-15040055D02*
X14880777Y-15059103D01*
X14880777Y-15059103D02*
X14861729Y-15068627D01*
X15042682Y-15011484D02*
X15176015Y-15011484D01*
X15176015Y-15011484D02*
X15090301Y-15211484D01*
X15347444Y-15011484D02*
X15252206Y-15011484D01*
X15252206Y-15011484D02*
X15242682Y-15106722D01*
X15242682Y-15106722D02*
X15252206Y-15097198D01*
X15252206Y-15097198D02*
X15271253Y-15087674D01*
X15271253Y-15087674D02*
X15318872Y-15087674D01*
X15318872Y-15087674D02*
X15337920Y-15097198D01*
X15337920Y-15097198D02*
X15347444Y-15106722D01*
X15347444Y-15106722D02*
X15356968Y-15125769D01*
X15356968Y-15125769D02*
X15356968Y-15173388D01*
X15356968Y-15173388D02*
X15347444Y-15192436D01*
X15347444Y-15192436D02*
X15337920Y-15201960D01*
X15337920Y-15201960D02*
X15318872Y-15211484D01*
X15318872Y-15211484D02*
X15271253Y-15211484D01*
X15271253Y-15211484D02*
X15252206Y-15201960D01*
X15252206Y-15201960D02*
X15242682Y-15192436D01*
X15595063Y-15211484D02*
X15595063Y-15011484D01*
X15680777Y-15211484D02*
X15680777Y-15106722D01*
X15680777Y-15106722D02*
X15671253Y-15087674D01*
X15671253Y-15087674D02*
X15652206Y-15078150D01*
X15652206Y-15078150D02*
X15623634Y-15078150D01*
X15623634Y-15078150D02*
X15604587Y-15087674D01*
X15604587Y-15087674D02*
X15595063Y-15097198D01*
X15804587Y-15211484D02*
X15785539Y-15201960D01*
X15785539Y-15201960D02*
X15776015Y-15192436D01*
X15776015Y-15192436D02*
X15766491Y-15173388D01*
X15766491Y-15173388D02*
X15766491Y-15116246D01*
X15766491Y-15116246D02*
X15776015Y-15097198D01*
X15776015Y-15097198D02*
X15785539Y-15087674D01*
X15785539Y-15087674D02*
X15804587Y-15078150D01*
X15804587Y-15078150D02*
X15833158Y-15078150D01*
X15833158Y-15078150D02*
X15852206Y-15087674D01*
X15852206Y-15087674D02*
X15861730Y-15097198D01*
X15861730Y-15097198D02*
X15871253Y-15116246D01*
X15871253Y-15116246D02*
X15871253Y-15173388D01*
X15871253Y-15173388D02*
X15861730Y-15192436D01*
X15861730Y-15192436D02*
X15852206Y-15201960D01*
X15852206Y-15201960D02*
X15833158Y-15211484D01*
X15833158Y-15211484D02*
X15804587Y-15211484D01*
X15985539Y-15211484D02*
X15966491Y-15201960D01*
X15966491Y-15201960D02*
X15956968Y-15182912D01*
X15956968Y-15182912D02*
X15956968Y-15011484D01*
X16137920Y-15201960D02*
X16118872Y-15211484D01*
X16118872Y-15211484D02*
X16080777Y-15211484D01*
X16080777Y-15211484D02*
X16061730Y-15201960D01*
X16061730Y-15201960D02*
X16052206Y-15182912D01*
X16052206Y-15182912D02*
X16052206Y-15106722D01*
X16052206Y-15106722D02*
X16061730Y-15087674D01*
X16061730Y-15087674D02*
X16080777Y-15078150D01*
X16080777Y-15078150D02*
X16118872Y-15078150D01*
X16118872Y-15078150D02*
X16137920Y-15087674D01*
X16137920Y-15087674D02*
X16147444Y-15106722D01*
X16147444Y-15106722D02*
X16147444Y-15125769D01*
X16147444Y-15125769D02*
X16052206Y-15144817D01*
X16223634Y-15201960D02*
X16242682Y-15211484D01*
X16242682Y-15211484D02*
X16280777Y-15211484D01*
X16280777Y-15211484D02*
X16299825Y-15201960D01*
X16299825Y-15201960D02*
X16309349Y-15182912D01*
X16309349Y-15182912D02*
X16309349Y-15173388D01*
X16309349Y-15173388D02*
X16299825Y-15154341D01*
X16299825Y-15154341D02*
X16280777Y-15144817D01*
X16280777Y-15144817D02*
X16252206Y-15144817D01*
X16252206Y-15144817D02*
X16233158Y-15135293D01*
X16233158Y-15135293D02*
X16223634Y-15116246D01*
X16223634Y-15116246D02*
X16223634Y-15106722D01*
X16223634Y-15106722D02*
X16233158Y-15087674D01*
X16233158Y-15087674D02*
X16252206Y-15078150D01*
X16252206Y-15078150D02*
X16280777Y-15078150D01*
X16280777Y-15078150D02*
X16299825Y-15087674D01*
X16376015Y-15287674D02*
X16385539Y-15278150D01*
X16385539Y-15278150D02*
X16404587Y-15249579D01*
X16404587Y-15249579D02*
X16414111Y-15230531D01*
X16414111Y-15230531D02*
X16423634Y-15201960D01*
X16423634Y-15201960D02*
X16433158Y-15154341D01*
X16433158Y-15154341D02*
X16433158Y-15116246D01*
X16433158Y-15116246D02*
X16423634Y-15068627D01*
X16423634Y-15068627D02*
X16414111Y-15040055D01*
X16414111Y-15040055D02*
X16404587Y-15021008D01*
X16404587Y-15021008D02*
X16385539Y-14992436D01*
X16385539Y-14992436D02*
X16376015Y-14982912D01*
D12*
X11220000Y-15384000D02*
G75*
G02*
X11100000Y-15384000I-60000J0D01*
G01*
X11100000Y-15384000D02*
G75*
G02*
X11220000Y-15384000I60000J0D01*
G01*
D11*
X11585539Y-15475484D02*
X11471253Y-15475484D01*
X11528396Y-15475484D02*
X11528396Y-15275484D01*
X11528396Y-15275484D02*
X11509348Y-15304055D01*
X11509348Y-15304055D02*
X11490301Y-15323103D01*
X11490301Y-15323103D02*
X11471253Y-15332627D01*
X11671253Y-15456436D02*
X11680777Y-15465960D01*
X11680777Y-15465960D02*
X11671253Y-15475484D01*
X11671253Y-15475484D02*
X11661729Y-15465960D01*
X11661729Y-15465960D02*
X11671253Y-15456436D01*
X11671253Y-15456436D02*
X11671253Y-15475484D01*
X11756967Y-15294531D02*
X11766491Y-15285008D01*
X11766491Y-15285008D02*
X11785539Y-15275484D01*
X11785539Y-15275484D02*
X11833158Y-15275484D01*
X11833158Y-15275484D02*
X11852205Y-15285008D01*
X11852205Y-15285008D02*
X11861729Y-15294531D01*
X11861729Y-15294531D02*
X11871253Y-15313579D01*
X11871253Y-15313579D02*
X11871253Y-15332627D01*
X11871253Y-15332627D02*
X11861729Y-15361198D01*
X11861729Y-15361198D02*
X11747443Y-15475484D01*
X11747443Y-15475484D02*
X11871253Y-15475484D01*
X11995062Y-15275484D02*
X12014110Y-15275484D01*
X12014110Y-15275484D02*
X12033158Y-15285008D01*
X12033158Y-15285008D02*
X12042682Y-15294531D01*
X12042682Y-15294531D02*
X12052205Y-15313579D01*
X12052205Y-15313579D02*
X12061729Y-15351674D01*
X12061729Y-15351674D02*
X12061729Y-15399293D01*
X12061729Y-15399293D02*
X12052205Y-15437388D01*
X12052205Y-15437388D02*
X12042682Y-15456436D01*
X12042682Y-15456436D02*
X12033158Y-15465960D01*
X12033158Y-15465960D02*
X12014110Y-15475484D01*
X12014110Y-15475484D02*
X11995062Y-15475484D01*
X11995062Y-15475484D02*
X11976015Y-15465960D01*
X11976015Y-15465960D02*
X11966491Y-15456436D01*
X11966491Y-15456436D02*
X11956967Y-15437388D01*
X11956967Y-15437388D02*
X11947443Y-15399293D01*
X11947443Y-15399293D02*
X11947443Y-15351674D01*
X11947443Y-15351674D02*
X11956967Y-15313579D01*
X11956967Y-15313579D02*
X11966491Y-15294531D01*
X11966491Y-15294531D02*
X11976015Y-15285008D01*
X11976015Y-15285008D02*
X11995062Y-15275484D01*
X12185539Y-15275484D02*
X12204586Y-15275484D01*
X12204586Y-15275484D02*
X12223634Y-15285008D01*
X12223634Y-15285008D02*
X12233158Y-15294531D01*
X12233158Y-15294531D02*
X12242682Y-15313579D01*
X12242682Y-15313579D02*
X12252205Y-15351674D01*
X12252205Y-15351674D02*
X12252205Y-15399293D01*
X12252205Y-15399293D02*
X12242682Y-15437388D01*
X12242682Y-15437388D02*
X12233158Y-15456436D01*
X12233158Y-15456436D02*
X12223634Y-15465960D01*
X12223634Y-15465960D02*
X12204586Y-15475484D01*
X12204586Y-15475484D02*
X12185539Y-15475484D01*
X12185539Y-15475484D02*
X12166491Y-15465960D01*
X12166491Y-15465960D02*
X12156967Y-15456436D01*
X12156967Y-15456436D02*
X12147443Y-15437388D01*
X12147443Y-15437388D02*
X12137920Y-15399293D01*
X12137920Y-15399293D02*
X12137920Y-15351674D01*
X12137920Y-15351674D02*
X12147443Y-15313579D01*
X12147443Y-15313579D02*
X12156967Y-15294531D01*
X12156967Y-15294531D02*
X12166491Y-15285008D01*
X12166491Y-15285008D02*
X12185539Y-15275484D01*
X12337920Y-15475484D02*
X12337920Y-15342150D01*
X12337920Y-15361198D02*
X12347443Y-15351674D01*
X12347443Y-15351674D02*
X12366491Y-15342150D01*
X12366491Y-15342150D02*
X12395063Y-15342150D01*
X12395063Y-15342150D02*
X12414110Y-15351674D01*
X12414110Y-15351674D02*
X12423634Y-15370722D01*
X12423634Y-15370722D02*
X12423634Y-15475484D01*
X12423634Y-15370722D02*
X12433158Y-15351674D01*
X12433158Y-15351674D02*
X12452205Y-15342150D01*
X12452205Y-15342150D02*
X12480777Y-15342150D01*
X12480777Y-15342150D02*
X12499824Y-15351674D01*
X12499824Y-15351674D02*
X12509348Y-15370722D01*
X12509348Y-15370722D02*
X12509348Y-15475484D01*
X12604586Y-15475484D02*
X12604586Y-15342150D01*
X12604586Y-15361198D02*
X12614110Y-15351674D01*
X12614110Y-15351674D02*
X12633158Y-15342150D01*
X12633158Y-15342150D02*
X12661729Y-15342150D01*
X12661729Y-15342150D02*
X12680777Y-15351674D01*
X12680777Y-15351674D02*
X12690301Y-15370722D01*
X12690301Y-15370722D02*
X12690301Y-15475484D01*
X12690301Y-15370722D02*
X12699824Y-15351674D01*
X12699824Y-15351674D02*
X12718872Y-15342150D01*
X12718872Y-15342150D02*
X12747443Y-15342150D01*
X12747443Y-15342150D02*
X12766491Y-15351674D01*
X12766491Y-15351674D02*
X12776015Y-15370722D01*
X12776015Y-15370722D02*
X12776015Y-15475484D01*
X13166491Y-15265960D02*
X12995063Y-15523103D01*
X13423634Y-15275484D02*
X13442682Y-15275484D01*
X13442682Y-15275484D02*
X13461729Y-15285008D01*
X13461729Y-15285008D02*
X13471253Y-15294531D01*
X13471253Y-15294531D02*
X13480777Y-15313579D01*
X13480777Y-15313579D02*
X13490301Y-15351674D01*
X13490301Y-15351674D02*
X13490301Y-15399293D01*
X13490301Y-15399293D02*
X13480777Y-15437388D01*
X13480777Y-15437388D02*
X13471253Y-15456436D01*
X13471253Y-15456436D02*
X13461729Y-15465960D01*
X13461729Y-15465960D02*
X13442682Y-15475484D01*
X13442682Y-15475484D02*
X13423634Y-15475484D01*
X13423634Y-15475484D02*
X13404586Y-15465960D01*
X13404586Y-15465960D02*
X13395063Y-15456436D01*
X13395063Y-15456436D02*
X13385539Y-15437388D01*
X13385539Y-15437388D02*
X13376015Y-15399293D01*
X13376015Y-15399293D02*
X13376015Y-15351674D01*
X13376015Y-15351674D02*
X13385539Y-15313579D01*
X13385539Y-15313579D02*
X13395063Y-15294531D01*
X13395063Y-15294531D02*
X13404586Y-15285008D01*
X13404586Y-15285008D02*
X13423634Y-15275484D01*
X13576015Y-15456436D02*
X13585539Y-15465960D01*
X13585539Y-15465960D02*
X13576015Y-15475484D01*
X13576015Y-15475484D02*
X13566491Y-15465960D01*
X13566491Y-15465960D02*
X13576015Y-15456436D01*
X13576015Y-15456436D02*
X13576015Y-15475484D01*
X13709348Y-15275484D02*
X13728396Y-15275484D01*
X13728396Y-15275484D02*
X13747444Y-15285008D01*
X13747444Y-15285008D02*
X13756967Y-15294531D01*
X13756967Y-15294531D02*
X13766491Y-15313579D01*
X13766491Y-15313579D02*
X13776015Y-15351674D01*
X13776015Y-15351674D02*
X13776015Y-15399293D01*
X13776015Y-15399293D02*
X13766491Y-15437388D01*
X13766491Y-15437388D02*
X13756967Y-15456436D01*
X13756967Y-15456436D02*
X13747444Y-15465960D01*
X13747444Y-15465960D02*
X13728396Y-15475484D01*
X13728396Y-15475484D02*
X13709348Y-15475484D01*
X13709348Y-15475484D02*
X13690301Y-15465960D01*
X13690301Y-15465960D02*
X13680777Y-15456436D01*
X13680777Y-15456436D02*
X13671253Y-15437388D01*
X13671253Y-15437388D02*
X13661729Y-15399293D01*
X13661729Y-15399293D02*
X13661729Y-15351674D01*
X13661729Y-15351674D02*
X13671253Y-15313579D01*
X13671253Y-15313579D02*
X13680777Y-15294531D01*
X13680777Y-15294531D02*
X13690301Y-15285008D01*
X13690301Y-15285008D02*
X13709348Y-15275484D01*
X13947444Y-15342150D02*
X13947444Y-15475484D01*
X13899825Y-15265960D02*
X13852206Y-15408817D01*
X13852206Y-15408817D02*
X13976015Y-15408817D01*
X14033158Y-15275484D02*
X14166491Y-15275484D01*
X14166491Y-15275484D02*
X14080777Y-15475484D01*
X14233158Y-15294531D02*
X14242682Y-15285008D01*
X14242682Y-15285008D02*
X14261729Y-15275484D01*
X14261729Y-15275484D02*
X14309348Y-15275484D01*
X14309348Y-15275484D02*
X14328396Y-15285008D01*
X14328396Y-15285008D02*
X14337920Y-15294531D01*
X14337920Y-15294531D02*
X14347444Y-15313579D01*
X14347444Y-15313579D02*
X14347444Y-15332627D01*
X14347444Y-15332627D02*
X14337920Y-15361198D01*
X14337920Y-15361198D02*
X14223634Y-15475484D01*
X14223634Y-15475484D02*
X14347444Y-15475484D01*
X14423634Y-15275484D02*
X14423634Y-15313579D01*
X14499825Y-15275484D02*
X14499825Y-15313579D01*
X14795063Y-15551674D02*
X14785539Y-15542150D01*
X14785539Y-15542150D02*
X14766491Y-15513579D01*
X14766491Y-15513579D02*
X14756968Y-15494531D01*
X14756968Y-15494531D02*
X14747444Y-15465960D01*
X14747444Y-15465960D02*
X14737920Y-15418341D01*
X14737920Y-15418341D02*
X14737920Y-15380246D01*
X14737920Y-15380246D02*
X14747444Y-15332627D01*
X14747444Y-15332627D02*
X14756968Y-15304055D01*
X14756968Y-15304055D02*
X14766491Y-15285008D01*
X14766491Y-15285008D02*
X14785539Y-15256436D01*
X14785539Y-15256436D02*
X14795063Y-15246912D01*
X14861729Y-15294531D02*
X14871253Y-15285008D01*
X14871253Y-15285008D02*
X14890301Y-15275484D01*
X14890301Y-15275484D02*
X14937920Y-15275484D01*
X14937920Y-15275484D02*
X14956968Y-15285008D01*
X14956968Y-15285008D02*
X14966491Y-15294531D01*
X14966491Y-15294531D02*
X14976015Y-15313579D01*
X14976015Y-15313579D02*
X14976015Y-15332627D01*
X14976015Y-15332627D02*
X14966491Y-15361198D01*
X14966491Y-15361198D02*
X14852206Y-15475484D01*
X14852206Y-15475484D02*
X14976015Y-15475484D01*
X15214110Y-15475484D02*
X15214110Y-15275484D01*
X15299825Y-15475484D02*
X15299825Y-15370722D01*
X15299825Y-15370722D02*
X15290301Y-15351674D01*
X15290301Y-15351674D02*
X15271253Y-15342150D01*
X15271253Y-15342150D02*
X15242682Y-15342150D01*
X15242682Y-15342150D02*
X15223634Y-15351674D01*
X15223634Y-15351674D02*
X15214110Y-15361198D01*
X15423634Y-15475484D02*
X15404587Y-15465960D01*
X15404587Y-15465960D02*
X15395063Y-15456436D01*
X15395063Y-15456436D02*
X15385539Y-15437388D01*
X15385539Y-15437388D02*
X15385539Y-15380246D01*
X15385539Y-15380246D02*
X15395063Y-15361198D01*
X15395063Y-15361198D02*
X15404587Y-15351674D01*
X15404587Y-15351674D02*
X15423634Y-15342150D01*
X15423634Y-15342150D02*
X15452206Y-15342150D01*
X15452206Y-15342150D02*
X15471253Y-15351674D01*
X15471253Y-15351674D02*
X15480777Y-15361198D01*
X15480777Y-15361198D02*
X15490301Y-15380246D01*
X15490301Y-15380246D02*
X15490301Y-15437388D01*
X15490301Y-15437388D02*
X15480777Y-15456436D01*
X15480777Y-15456436D02*
X15471253Y-15465960D01*
X15471253Y-15465960D02*
X15452206Y-15475484D01*
X15452206Y-15475484D02*
X15423634Y-15475484D01*
X15604587Y-15475484D02*
X15585539Y-15465960D01*
X15585539Y-15465960D02*
X15576015Y-15446912D01*
X15576015Y-15446912D02*
X15576015Y-15275484D01*
X15756968Y-15465960D02*
X15737920Y-15475484D01*
X15737920Y-15475484D02*
X15699825Y-15475484D01*
X15699825Y-15475484D02*
X15680777Y-15465960D01*
X15680777Y-15465960D02*
X15671253Y-15446912D01*
X15671253Y-15446912D02*
X15671253Y-15370722D01*
X15671253Y-15370722D02*
X15680777Y-15351674D01*
X15680777Y-15351674D02*
X15699825Y-15342150D01*
X15699825Y-15342150D02*
X15737920Y-15342150D01*
X15737920Y-15342150D02*
X15756968Y-15351674D01*
X15756968Y-15351674D02*
X15766491Y-15370722D01*
X15766491Y-15370722D02*
X15766491Y-15389769D01*
X15766491Y-15389769D02*
X15671253Y-15408817D01*
X15842682Y-15465960D02*
X15861730Y-15475484D01*
X15861730Y-15475484D02*
X15899825Y-15475484D01*
X15899825Y-15475484D02*
X15918872Y-15465960D01*
X15918872Y-15465960D02*
X15928396Y-15446912D01*
X15928396Y-15446912D02*
X15928396Y-15437388D01*
X15928396Y-15437388D02*
X15918872Y-15418341D01*
X15918872Y-15418341D02*
X15899825Y-15408817D01*
X15899825Y-15408817D02*
X15871253Y-15408817D01*
X15871253Y-15408817D02*
X15852206Y-15399293D01*
X15852206Y-15399293D02*
X15842682Y-15380246D01*
X15842682Y-15380246D02*
X15842682Y-15370722D01*
X15842682Y-15370722D02*
X15852206Y-15351674D01*
X15852206Y-15351674D02*
X15871253Y-15342150D01*
X15871253Y-15342150D02*
X15899825Y-15342150D01*
X15899825Y-15342150D02*
X15918872Y-15351674D01*
X15995063Y-15551674D02*
X16004587Y-15542150D01*
X16004587Y-15542150D02*
X16023634Y-15513579D01*
X16023634Y-15513579D02*
X16033158Y-15494531D01*
X16033158Y-15494531D02*
X16042682Y-15465960D01*
X16042682Y-15465960D02*
X16052206Y-15418341D01*
X16052206Y-15418341D02*
X16052206Y-15380246D01*
X16052206Y-15380246D02*
X16042682Y-15332627D01*
X16042682Y-15332627D02*
X16033158Y-15304055D01*
X16033158Y-15304055D02*
X16023634Y-15285008D01*
X16023634Y-15285008D02*
X16004587Y-15256436D01*
X16004587Y-15256436D02*
X15995063Y-15246912D01*
M02*
