M48
; DRILL file {KiCad 8.0.3} date 2024-08-26T20:19:06+0200
; FORMAT={-:-/ absolute / metric / decimal}
; #@! TF.CreationDate,2024-08-26T20:19:06+02:00
; #@! TF.GenerationSoftware,Kicad,Pcbnew,8.0.3
; #@! TF.FileFunction,Plated,1,2,PTH
FMAT,2
METRIC
; #@! TA.AperFunction,Plated,PTH,ViaDrill
T1C0.400
; #@! TA.AperFunction,Plated,PTH,ComponentDrill
T2C1.200
%
G90
G05
T1
X113.638Y-93.285
X113.638Y-95.825
X113.638Y-98.365
X113.638Y-100.905
X113.638Y-103.445
X113.638Y-105.985
X113.638Y-108.525
X113.638Y-111.065
X113.638Y-113.605
X113.638Y-116.145
X113.638Y-118.685
X113.638Y-121.225
X113.638Y-123.765
X113.638Y-126.305
X113.638Y-128.845
X113.638Y-131.385
X113.638Y-133.925
X113.638Y-136.465
X113.638Y-139.005
X116.178Y-93.285
X116.178Y-95.825
X116.178Y-98.365
X116.178Y-100.905
X116.178Y-103.445
X116.178Y-105.985
X116.178Y-108.525
X116.178Y-111.065
X116.178Y-113.605
X116.178Y-116.145
X116.178Y-118.685
X116.178Y-121.225
X116.178Y-123.765
X116.178Y-126.305
X116.178Y-128.845
X116.178Y-131.385
X116.178Y-133.925
X116.178Y-136.465
X118.718Y-88.205
X118.718Y-90.745
X118.718Y-93.285
X118.718Y-95.825
X118.718Y-98.365
X118.718Y-100.905
X118.718Y-103.445
X118.718Y-105.985
X118.718Y-126.305
X118.718Y-133.925
X118.718Y-136.465
X118.718Y-139.005
X118.718Y-141.545
X119.05Y-112.95
X120.5Y-112.3
X121.258Y-88.205
X121.258Y-90.745
X121.258Y-93.285
X121.258Y-95.825
X121.258Y-98.365
X121.258Y-100.905
X121.258Y-103.445
X121.258Y-121.225
X121.258Y-123.765
X121.258Y-126.305
X121.258Y-133.925
X121.258Y-136.465
X121.258Y-139.005
X121.258Y-141.545
X123.3Y-128.4
X123.3Y-129.7
X123.3Y-130.8
X123.35Y-131.85
X123.798Y-88.205
X123.798Y-90.745
X123.798Y-93.285
X123.798Y-95.825
X123.798Y-98.365
X123.798Y-133.925
X123.798Y-136.465
X123.798Y-139.005
X123.798Y-141.545
X123.85Y-114.65
X123.872Y-112.515
X124.4Y-106.6
X125.1Y-112.5
X125.1Y-113.6
X125.1Y-114.7
X125.6Y-106.6
X126.338Y-88.205
X126.338Y-90.745
X126.338Y-98.365
X126.338Y-133.925
X126.338Y-136.465
X126.338Y-139.005
X126.338Y-141.545
X127.15Y-120.55
X128.25Y-120.45
X128.878Y-88.205
X128.878Y-90.745
X128.878Y-123.765
X128.878Y-133.925
X128.878Y-136.465
X128.878Y-139.005
X128.878Y-141.545
X131.418Y-88.205
X131.418Y-90.745
X131.418Y-98.365
X131.418Y-116.145
X131.418Y-123.765
X131.418Y-133.925
X131.418Y-139.005
X131.418Y-141.545
X133.958Y-88.205
X133.958Y-90.745
X133.958Y-93.285
X133.958Y-95.825
X133.958Y-98.365
X133.958Y-100.905
X133.958Y-103.445
X133.958Y-116.145
X133.958Y-118.685
X133.958Y-133.925
X133.958Y-139.005
X133.958Y-141.545
X136.498Y-88.205
X136.498Y-90.745
X136.498Y-93.285
X136.498Y-95.825
X136.498Y-98.365
X136.498Y-100.905
X136.498Y-103.445
X136.498Y-116.145
X136.498Y-118.685
X136.498Y-121.225
X136.498Y-123.765
X136.498Y-126.305
X136.498Y-133.925
X136.498Y-136.465
X136.498Y-139.005
X136.498Y-141.545
X139.038Y-93.285
X139.038Y-95.825
X139.038Y-98.365
X139.038Y-100.905
X139.038Y-103.445
X139.038Y-105.985
X139.038Y-108.525
X139.038Y-111.065
X139.038Y-113.605
X139.038Y-116.145
X139.038Y-118.685
X139.038Y-121.225
X139.038Y-123.765
X139.038Y-126.305
X139.038Y-128.845
X139.038Y-131.385
X139.038Y-133.925
X139.038Y-136.465
X141.578Y-93.285
X141.578Y-95.825
X141.578Y-98.365
X141.578Y-100.905
X141.578Y-103.445
X141.578Y-105.985
X141.578Y-108.525
X141.578Y-111.065
X141.578Y-113.605
X141.578Y-116.145
X141.578Y-118.685
X141.578Y-121.225
X141.578Y-123.765
X141.578Y-126.305
X141.578Y-128.845
X141.578Y-131.385
X141.578Y-133.925
X141.578Y-136.465
X141.578Y-139.005
T2
X125.862Y-94.157
X129.672Y-94.157
M30
