%TF.GenerationSoftware,KiCad,Pcbnew,8.0.3*%
%TF.CreationDate,2024-08-26T20:19:17+02:00*%
%TF.ProjectId,battEliminator,62617474-456c-4696-9d69-6e61746f722e,0.1*%
%TF.SameCoordinates,Original*%
%TF.FileFunction,Drillmap*%
%TF.FilePolarity,Positive*%
%FSLAX45Y45*%
G04 Gerber Fmt 4.5, Leading zero omitted, Abs format (unit mm)*
G04 Created by KiCad (PCBNEW 8.0.3) date 2024-08-26 20:19:17*
%MOMM*%
%LPD*%
G01*
G04 APERTURE LIST*
%ADD10C,0.100000*%
%ADD11C,0.200000*%
%ADD12C,0.320000*%
G04 APERTURE END LIST*
D10*
X11225000Y-8675000D02*
X14325000Y-8675000D01*
X14325000Y-14475000D01*
X11225000Y-14475000D01*
X11225000Y-8675000D01*
D11*
D12*
X11390000Y-8840000D02*
X11710000Y-9160000D01*
X11710000Y-8840000D02*
X11390000Y-9160000D01*
X11390000Y-13990000D02*
X11710000Y-14310000D01*
X11710000Y-13990000D02*
X11390000Y-14310000D01*
X13840000Y-8840000D02*
X14160000Y-9160000D01*
X14160000Y-8840000D02*
X13840000Y-9160000D01*
X13840000Y-13990000D02*
X14160000Y-14310000D01*
X14160000Y-13990000D02*
X13840000Y-14310000D01*
D11*
X11480777Y-14791484D02*
X11480777Y-14591484D01*
X11480777Y-14591484D02*
X11528396Y-14591484D01*
X11528396Y-14591484D02*
X11556967Y-14601008D01*
X11556967Y-14601008D02*
X11576015Y-14620055D01*
X11576015Y-14620055D02*
X11585539Y-14639103D01*
X11585539Y-14639103D02*
X11595062Y-14677198D01*
X11595062Y-14677198D02*
X11595062Y-14705769D01*
X11595062Y-14705769D02*
X11585539Y-14743865D01*
X11585539Y-14743865D02*
X11576015Y-14762912D01*
X11576015Y-14762912D02*
X11556967Y-14781960D01*
X11556967Y-14781960D02*
X11528396Y-14791484D01*
X11528396Y-14791484D02*
X11480777Y-14791484D01*
X11680777Y-14791484D02*
X11680777Y-14658150D01*
X11680777Y-14696246D02*
X11690301Y-14677198D01*
X11690301Y-14677198D02*
X11699824Y-14667674D01*
X11699824Y-14667674D02*
X11718872Y-14658150D01*
X11718872Y-14658150D02*
X11737920Y-14658150D01*
X11804586Y-14791484D02*
X11804586Y-14658150D01*
X11804586Y-14591484D02*
X11795062Y-14601008D01*
X11795062Y-14601008D02*
X11804586Y-14610531D01*
X11804586Y-14610531D02*
X11814110Y-14601008D01*
X11814110Y-14601008D02*
X11804586Y-14591484D01*
X11804586Y-14591484D02*
X11804586Y-14610531D01*
X11928396Y-14791484D02*
X11909348Y-14781960D01*
X11909348Y-14781960D02*
X11899824Y-14762912D01*
X11899824Y-14762912D02*
X11899824Y-14591484D01*
X12033158Y-14791484D02*
X12014110Y-14781960D01*
X12014110Y-14781960D02*
X12004586Y-14762912D01*
X12004586Y-14762912D02*
X12004586Y-14591484D01*
X12261729Y-14791484D02*
X12261729Y-14591484D01*
X12261729Y-14591484D02*
X12328396Y-14734341D01*
X12328396Y-14734341D02*
X12395062Y-14591484D01*
X12395062Y-14591484D02*
X12395062Y-14791484D01*
X12576015Y-14791484D02*
X12576015Y-14686722D01*
X12576015Y-14686722D02*
X12566491Y-14667674D01*
X12566491Y-14667674D02*
X12547443Y-14658150D01*
X12547443Y-14658150D02*
X12509348Y-14658150D01*
X12509348Y-14658150D02*
X12490301Y-14667674D01*
X12576015Y-14781960D02*
X12556967Y-14791484D01*
X12556967Y-14791484D02*
X12509348Y-14791484D01*
X12509348Y-14791484D02*
X12490301Y-14781960D01*
X12490301Y-14781960D02*
X12480777Y-14762912D01*
X12480777Y-14762912D02*
X12480777Y-14743865D01*
X12480777Y-14743865D02*
X12490301Y-14724817D01*
X12490301Y-14724817D02*
X12509348Y-14715293D01*
X12509348Y-14715293D02*
X12556967Y-14715293D01*
X12556967Y-14715293D02*
X12576015Y-14705769D01*
X12671253Y-14658150D02*
X12671253Y-14858150D01*
X12671253Y-14667674D02*
X12690301Y-14658150D01*
X12690301Y-14658150D02*
X12728396Y-14658150D01*
X12728396Y-14658150D02*
X12747443Y-14667674D01*
X12747443Y-14667674D02*
X12756967Y-14677198D01*
X12756967Y-14677198D02*
X12766491Y-14696246D01*
X12766491Y-14696246D02*
X12766491Y-14753388D01*
X12766491Y-14753388D02*
X12756967Y-14772436D01*
X12756967Y-14772436D02*
X12747443Y-14781960D01*
X12747443Y-14781960D02*
X12728396Y-14791484D01*
X12728396Y-14791484D02*
X12690301Y-14791484D01*
X12690301Y-14791484D02*
X12671253Y-14781960D01*
X12852205Y-14772436D02*
X12861729Y-14781960D01*
X12861729Y-14781960D02*
X12852205Y-14791484D01*
X12852205Y-14791484D02*
X12842682Y-14781960D01*
X12842682Y-14781960D02*
X12852205Y-14772436D01*
X12852205Y-14772436D02*
X12852205Y-14791484D01*
X12852205Y-14667674D02*
X12861729Y-14677198D01*
X12861729Y-14677198D02*
X12852205Y-14686722D01*
X12852205Y-14686722D02*
X12842682Y-14677198D01*
X12842682Y-14677198D02*
X12852205Y-14667674D01*
X12852205Y-14667674D02*
X12852205Y-14686722D01*
X11020000Y-15020000D02*
X11220000Y-15220000D01*
X11220000Y-15020000D02*
X11020000Y-15220000D01*
X11461729Y-15011484D02*
X11585539Y-15011484D01*
X11585539Y-15011484D02*
X11518872Y-15087674D01*
X11518872Y-15087674D02*
X11547443Y-15087674D01*
X11547443Y-15087674D02*
X11566491Y-15097198D01*
X11566491Y-15097198D02*
X11576015Y-15106722D01*
X11576015Y-15106722D02*
X11585539Y-15125769D01*
X11585539Y-15125769D02*
X11585539Y-15173388D01*
X11585539Y-15173388D02*
X11576015Y-15192436D01*
X11576015Y-15192436D02*
X11566491Y-15201960D01*
X11566491Y-15201960D02*
X11547443Y-15211484D01*
X11547443Y-15211484D02*
X11490301Y-15211484D01*
X11490301Y-15211484D02*
X11471253Y-15201960D01*
X11471253Y-15201960D02*
X11461729Y-15192436D01*
X11671253Y-15192436D02*
X11680777Y-15201960D01*
X11680777Y-15201960D02*
X11671253Y-15211484D01*
X11671253Y-15211484D02*
X11661729Y-15201960D01*
X11661729Y-15201960D02*
X11671253Y-15192436D01*
X11671253Y-15192436D02*
X11671253Y-15211484D01*
X11756967Y-15030531D02*
X11766491Y-15021008D01*
X11766491Y-15021008D02*
X11785539Y-15011484D01*
X11785539Y-15011484D02*
X11833158Y-15011484D01*
X11833158Y-15011484D02*
X11852205Y-15021008D01*
X11852205Y-15021008D02*
X11861729Y-15030531D01*
X11861729Y-15030531D02*
X11871253Y-15049579D01*
X11871253Y-15049579D02*
X11871253Y-15068627D01*
X11871253Y-15068627D02*
X11861729Y-15097198D01*
X11861729Y-15097198D02*
X11747443Y-15211484D01*
X11747443Y-15211484D02*
X11871253Y-15211484D01*
X11995062Y-15011484D02*
X12014110Y-15011484D01*
X12014110Y-15011484D02*
X12033158Y-15021008D01*
X12033158Y-15021008D02*
X12042682Y-15030531D01*
X12042682Y-15030531D02*
X12052205Y-15049579D01*
X12052205Y-15049579D02*
X12061729Y-15087674D01*
X12061729Y-15087674D02*
X12061729Y-15135293D01*
X12061729Y-15135293D02*
X12052205Y-15173388D01*
X12052205Y-15173388D02*
X12042682Y-15192436D01*
X12042682Y-15192436D02*
X12033158Y-15201960D01*
X12033158Y-15201960D02*
X12014110Y-15211484D01*
X12014110Y-15211484D02*
X11995062Y-15211484D01*
X11995062Y-15211484D02*
X11976015Y-15201960D01*
X11976015Y-15201960D02*
X11966491Y-15192436D01*
X11966491Y-15192436D02*
X11956967Y-15173388D01*
X11956967Y-15173388D02*
X11947443Y-15135293D01*
X11947443Y-15135293D02*
X11947443Y-15087674D01*
X11947443Y-15087674D02*
X11956967Y-15049579D01*
X11956967Y-15049579D02*
X11966491Y-15030531D01*
X11966491Y-15030531D02*
X11976015Y-15021008D01*
X11976015Y-15021008D02*
X11995062Y-15011484D01*
X12185539Y-15011484D02*
X12204586Y-15011484D01*
X12204586Y-15011484D02*
X12223634Y-15021008D01*
X12223634Y-15021008D02*
X12233158Y-15030531D01*
X12233158Y-15030531D02*
X12242682Y-15049579D01*
X12242682Y-15049579D02*
X12252205Y-15087674D01*
X12252205Y-15087674D02*
X12252205Y-15135293D01*
X12252205Y-15135293D02*
X12242682Y-15173388D01*
X12242682Y-15173388D02*
X12233158Y-15192436D01*
X12233158Y-15192436D02*
X12223634Y-15201960D01*
X12223634Y-15201960D02*
X12204586Y-15211484D01*
X12204586Y-15211484D02*
X12185539Y-15211484D01*
X12185539Y-15211484D02*
X12166491Y-15201960D01*
X12166491Y-15201960D02*
X12156967Y-15192436D01*
X12156967Y-15192436D02*
X12147443Y-15173388D01*
X12147443Y-15173388D02*
X12137920Y-15135293D01*
X12137920Y-15135293D02*
X12137920Y-15087674D01*
X12137920Y-15087674D02*
X12147443Y-15049579D01*
X12147443Y-15049579D02*
X12156967Y-15030531D01*
X12156967Y-15030531D02*
X12166491Y-15021008D01*
X12166491Y-15021008D02*
X12185539Y-15011484D01*
X12337920Y-15211484D02*
X12337920Y-15078150D01*
X12337920Y-15097198D02*
X12347443Y-15087674D01*
X12347443Y-15087674D02*
X12366491Y-15078150D01*
X12366491Y-15078150D02*
X12395063Y-15078150D01*
X12395063Y-15078150D02*
X12414110Y-15087674D01*
X12414110Y-15087674D02*
X12423634Y-15106722D01*
X12423634Y-15106722D02*
X12423634Y-15211484D01*
X12423634Y-15106722D02*
X12433158Y-15087674D01*
X12433158Y-15087674D02*
X12452205Y-15078150D01*
X12452205Y-15078150D02*
X12480777Y-15078150D01*
X12480777Y-15078150D02*
X12499824Y-15087674D01*
X12499824Y-15087674D02*
X12509348Y-15106722D01*
X12509348Y-15106722D02*
X12509348Y-15211484D01*
X12604586Y-15211484D02*
X12604586Y-15078150D01*
X12604586Y-15097198D02*
X12614110Y-15087674D01*
X12614110Y-15087674D02*
X12633158Y-15078150D01*
X12633158Y-15078150D02*
X12661729Y-15078150D01*
X12661729Y-15078150D02*
X12680777Y-15087674D01*
X12680777Y-15087674D02*
X12690301Y-15106722D01*
X12690301Y-15106722D02*
X12690301Y-15211484D01*
X12690301Y-15106722D02*
X12699824Y-15087674D01*
X12699824Y-15087674D02*
X12718872Y-15078150D01*
X12718872Y-15078150D02*
X12747443Y-15078150D01*
X12747443Y-15078150D02*
X12766491Y-15087674D01*
X12766491Y-15087674D02*
X12776015Y-15106722D01*
X12776015Y-15106722D02*
X12776015Y-15211484D01*
X13166491Y-15001960D02*
X12995063Y-15259103D01*
X13423634Y-15011484D02*
X13442682Y-15011484D01*
X13442682Y-15011484D02*
X13461729Y-15021008D01*
X13461729Y-15021008D02*
X13471253Y-15030531D01*
X13471253Y-15030531D02*
X13480777Y-15049579D01*
X13480777Y-15049579D02*
X13490301Y-15087674D01*
X13490301Y-15087674D02*
X13490301Y-15135293D01*
X13490301Y-15135293D02*
X13480777Y-15173388D01*
X13480777Y-15173388D02*
X13471253Y-15192436D01*
X13471253Y-15192436D02*
X13461729Y-15201960D01*
X13461729Y-15201960D02*
X13442682Y-15211484D01*
X13442682Y-15211484D02*
X13423634Y-15211484D01*
X13423634Y-15211484D02*
X13404586Y-15201960D01*
X13404586Y-15201960D02*
X13395063Y-15192436D01*
X13395063Y-15192436D02*
X13385539Y-15173388D01*
X13385539Y-15173388D02*
X13376015Y-15135293D01*
X13376015Y-15135293D02*
X13376015Y-15087674D01*
X13376015Y-15087674D02*
X13385539Y-15049579D01*
X13385539Y-15049579D02*
X13395063Y-15030531D01*
X13395063Y-15030531D02*
X13404586Y-15021008D01*
X13404586Y-15021008D02*
X13423634Y-15011484D01*
X13576015Y-15192436D02*
X13585539Y-15201960D01*
X13585539Y-15201960D02*
X13576015Y-15211484D01*
X13576015Y-15211484D02*
X13566491Y-15201960D01*
X13566491Y-15201960D02*
X13576015Y-15192436D01*
X13576015Y-15192436D02*
X13576015Y-15211484D01*
X13776015Y-15211484D02*
X13661729Y-15211484D01*
X13718872Y-15211484D02*
X13718872Y-15011484D01*
X13718872Y-15011484D02*
X13699825Y-15040055D01*
X13699825Y-15040055D02*
X13680777Y-15059103D01*
X13680777Y-15059103D02*
X13661729Y-15068627D01*
X13852206Y-15030531D02*
X13861729Y-15021008D01*
X13861729Y-15021008D02*
X13880777Y-15011484D01*
X13880777Y-15011484D02*
X13928396Y-15011484D01*
X13928396Y-15011484D02*
X13947444Y-15021008D01*
X13947444Y-15021008D02*
X13956967Y-15030531D01*
X13956967Y-15030531D02*
X13966491Y-15049579D01*
X13966491Y-15049579D02*
X13966491Y-15068627D01*
X13966491Y-15068627D02*
X13956967Y-15097198D01*
X13956967Y-15097198D02*
X13842682Y-15211484D01*
X13842682Y-15211484D02*
X13966491Y-15211484D01*
X14137920Y-15011484D02*
X14099825Y-15011484D01*
X14099825Y-15011484D02*
X14080777Y-15021008D01*
X14080777Y-15021008D02*
X14071253Y-15030531D01*
X14071253Y-15030531D02*
X14052206Y-15059103D01*
X14052206Y-15059103D02*
X14042682Y-15097198D01*
X14042682Y-15097198D02*
X14042682Y-15173388D01*
X14042682Y-15173388D02*
X14052206Y-15192436D01*
X14052206Y-15192436D02*
X14061729Y-15201960D01*
X14061729Y-15201960D02*
X14080777Y-15211484D01*
X14080777Y-15211484D02*
X14118872Y-15211484D01*
X14118872Y-15211484D02*
X14137920Y-15201960D01*
X14137920Y-15201960D02*
X14147444Y-15192436D01*
X14147444Y-15192436D02*
X14156967Y-15173388D01*
X14156967Y-15173388D02*
X14156967Y-15125769D01*
X14156967Y-15125769D02*
X14147444Y-15106722D01*
X14147444Y-15106722D02*
X14137920Y-15097198D01*
X14137920Y-15097198D02*
X14118872Y-15087674D01*
X14118872Y-15087674D02*
X14080777Y-15087674D01*
X14080777Y-15087674D02*
X14061729Y-15097198D01*
X14061729Y-15097198D02*
X14052206Y-15106722D01*
X14052206Y-15106722D02*
X14042682Y-15125769D01*
X14280777Y-15011484D02*
X14299825Y-15011484D01*
X14299825Y-15011484D02*
X14318872Y-15021008D01*
X14318872Y-15021008D02*
X14328396Y-15030531D01*
X14328396Y-15030531D02*
X14337920Y-15049579D01*
X14337920Y-15049579D02*
X14347444Y-15087674D01*
X14347444Y-15087674D02*
X14347444Y-15135293D01*
X14347444Y-15135293D02*
X14337920Y-15173388D01*
X14337920Y-15173388D02*
X14328396Y-15192436D01*
X14328396Y-15192436D02*
X14318872Y-15201960D01*
X14318872Y-15201960D02*
X14299825Y-15211484D01*
X14299825Y-15211484D02*
X14280777Y-15211484D01*
X14280777Y-15211484D02*
X14261729Y-15201960D01*
X14261729Y-15201960D02*
X14252206Y-15192436D01*
X14252206Y-15192436D02*
X14242682Y-15173388D01*
X14242682Y-15173388D02*
X14233158Y-15135293D01*
X14233158Y-15135293D02*
X14233158Y-15087674D01*
X14233158Y-15087674D02*
X14242682Y-15049579D01*
X14242682Y-15049579D02*
X14252206Y-15030531D01*
X14252206Y-15030531D02*
X14261729Y-15021008D01*
X14261729Y-15021008D02*
X14280777Y-15011484D01*
X14423634Y-15011484D02*
X14423634Y-15049579D01*
X14499825Y-15011484D02*
X14499825Y-15049579D01*
X14795063Y-15287674D02*
X14785539Y-15278150D01*
X14785539Y-15278150D02*
X14766491Y-15249579D01*
X14766491Y-15249579D02*
X14756968Y-15230531D01*
X14756968Y-15230531D02*
X14747444Y-15201960D01*
X14747444Y-15201960D02*
X14737920Y-15154341D01*
X14737920Y-15154341D02*
X14737920Y-15116246D01*
X14737920Y-15116246D02*
X14747444Y-15068627D01*
X14747444Y-15068627D02*
X14756968Y-15040055D01*
X14756968Y-15040055D02*
X14766491Y-15021008D01*
X14766491Y-15021008D02*
X14785539Y-14992436D01*
X14785539Y-14992436D02*
X14795063Y-14982912D01*
X14956968Y-15078150D02*
X14956968Y-15211484D01*
X14909348Y-15001960D02*
X14861729Y-15144817D01*
X14861729Y-15144817D02*
X14985539Y-15144817D01*
X15214110Y-15211484D02*
X15214110Y-15011484D01*
X15299825Y-15211484D02*
X15299825Y-15106722D01*
X15299825Y-15106722D02*
X15290301Y-15087674D01*
X15290301Y-15087674D02*
X15271253Y-15078150D01*
X15271253Y-15078150D02*
X15242682Y-15078150D01*
X15242682Y-15078150D02*
X15223634Y-15087674D01*
X15223634Y-15087674D02*
X15214110Y-15097198D01*
X15423634Y-15211484D02*
X15404587Y-15201960D01*
X15404587Y-15201960D02*
X15395063Y-15192436D01*
X15395063Y-15192436D02*
X15385539Y-15173388D01*
X15385539Y-15173388D02*
X15385539Y-15116246D01*
X15385539Y-15116246D02*
X15395063Y-15097198D01*
X15395063Y-15097198D02*
X15404587Y-15087674D01*
X15404587Y-15087674D02*
X15423634Y-15078150D01*
X15423634Y-15078150D02*
X15452206Y-15078150D01*
X15452206Y-15078150D02*
X15471253Y-15087674D01*
X15471253Y-15087674D02*
X15480777Y-15097198D01*
X15480777Y-15097198D02*
X15490301Y-15116246D01*
X15490301Y-15116246D02*
X15490301Y-15173388D01*
X15490301Y-15173388D02*
X15480777Y-15192436D01*
X15480777Y-15192436D02*
X15471253Y-15201960D01*
X15471253Y-15201960D02*
X15452206Y-15211484D01*
X15452206Y-15211484D02*
X15423634Y-15211484D01*
X15604587Y-15211484D02*
X15585539Y-15201960D01*
X15585539Y-15201960D02*
X15576015Y-15182912D01*
X15576015Y-15182912D02*
X15576015Y-15011484D01*
X15756968Y-15201960D02*
X15737920Y-15211484D01*
X15737920Y-15211484D02*
X15699825Y-15211484D01*
X15699825Y-15211484D02*
X15680777Y-15201960D01*
X15680777Y-15201960D02*
X15671253Y-15182912D01*
X15671253Y-15182912D02*
X15671253Y-15106722D01*
X15671253Y-15106722D02*
X15680777Y-15087674D01*
X15680777Y-15087674D02*
X15699825Y-15078150D01*
X15699825Y-15078150D02*
X15737920Y-15078150D01*
X15737920Y-15078150D02*
X15756968Y-15087674D01*
X15756968Y-15087674D02*
X15766491Y-15106722D01*
X15766491Y-15106722D02*
X15766491Y-15125769D01*
X15766491Y-15125769D02*
X15671253Y-15144817D01*
X15842682Y-15201960D02*
X15861730Y-15211484D01*
X15861730Y-15211484D02*
X15899825Y-15211484D01*
X15899825Y-15211484D02*
X15918872Y-15201960D01*
X15918872Y-15201960D02*
X15928396Y-15182912D01*
X15928396Y-15182912D02*
X15928396Y-15173388D01*
X15928396Y-15173388D02*
X15918872Y-15154341D01*
X15918872Y-15154341D02*
X15899825Y-15144817D01*
X15899825Y-15144817D02*
X15871253Y-15144817D01*
X15871253Y-15144817D02*
X15852206Y-15135293D01*
X15852206Y-15135293D02*
X15842682Y-15116246D01*
X15842682Y-15116246D02*
X15842682Y-15106722D01*
X15842682Y-15106722D02*
X15852206Y-15087674D01*
X15852206Y-15087674D02*
X15871253Y-15078150D01*
X15871253Y-15078150D02*
X15899825Y-15078150D01*
X15899825Y-15078150D02*
X15918872Y-15087674D01*
X15995063Y-15287674D02*
X16004587Y-15278150D01*
X16004587Y-15278150D02*
X16023634Y-15249579D01*
X16023634Y-15249579D02*
X16033158Y-15230531D01*
X16033158Y-15230531D02*
X16042682Y-15201960D01*
X16042682Y-15201960D02*
X16052206Y-15154341D01*
X16052206Y-15154341D02*
X16052206Y-15116246D01*
X16052206Y-15116246D02*
X16042682Y-15068627D01*
X16042682Y-15068627D02*
X16033158Y-15040055D01*
X16033158Y-15040055D02*
X16023634Y-15021008D01*
X16023634Y-15021008D02*
X16004587Y-14992436D01*
X16004587Y-14992436D02*
X15995063Y-14982912D01*
X16356968Y-15287674D02*
X16347444Y-15278150D01*
X16347444Y-15278150D02*
X16328396Y-15249579D01*
X16328396Y-15249579D02*
X16318872Y-15230531D01*
X16318872Y-15230531D02*
X16309349Y-15201960D01*
X16309349Y-15201960D02*
X16299825Y-15154341D01*
X16299825Y-15154341D02*
X16299825Y-15116246D01*
X16299825Y-15116246D02*
X16309349Y-15068627D01*
X16309349Y-15068627D02*
X16318872Y-15040055D01*
X16318872Y-15040055D02*
X16328396Y-15021008D01*
X16328396Y-15021008D02*
X16347444Y-14992436D01*
X16347444Y-14992436D02*
X16356968Y-14982912D01*
X16433158Y-15078150D02*
X16433158Y-15211484D01*
X16433158Y-15097198D02*
X16442682Y-15087674D01*
X16442682Y-15087674D02*
X16461730Y-15078150D01*
X16461730Y-15078150D02*
X16490301Y-15078150D01*
X16490301Y-15078150D02*
X16509349Y-15087674D01*
X16509349Y-15087674D02*
X16518872Y-15106722D01*
X16518872Y-15106722D02*
X16518872Y-15211484D01*
X16642682Y-15211484D02*
X16623634Y-15201960D01*
X16623634Y-15201960D02*
X16614111Y-15192436D01*
X16614111Y-15192436D02*
X16604587Y-15173388D01*
X16604587Y-15173388D02*
X16604587Y-15116246D01*
X16604587Y-15116246D02*
X16614111Y-15097198D01*
X16614111Y-15097198D02*
X16623634Y-15087674D01*
X16623634Y-15087674D02*
X16642682Y-15078150D01*
X16642682Y-15078150D02*
X16671253Y-15078150D01*
X16671253Y-15078150D02*
X16690301Y-15087674D01*
X16690301Y-15087674D02*
X16699825Y-15097198D01*
X16699825Y-15097198D02*
X16709349Y-15116246D01*
X16709349Y-15116246D02*
X16709349Y-15173388D01*
X16709349Y-15173388D02*
X16699825Y-15192436D01*
X16699825Y-15192436D02*
X16690301Y-15201960D01*
X16690301Y-15201960D02*
X16671253Y-15211484D01*
X16671253Y-15211484D02*
X16642682Y-15211484D01*
X16766492Y-15078150D02*
X16842682Y-15078150D01*
X16795063Y-15011484D02*
X16795063Y-15182912D01*
X16795063Y-15182912D02*
X16804587Y-15201960D01*
X16804587Y-15201960D02*
X16823634Y-15211484D01*
X16823634Y-15211484D02*
X16842682Y-15211484D01*
X17061730Y-15078150D02*
X17061730Y-15278150D01*
X17061730Y-15087674D02*
X17080777Y-15078150D01*
X17080777Y-15078150D02*
X17118873Y-15078150D01*
X17118873Y-15078150D02*
X17137920Y-15087674D01*
X17137920Y-15087674D02*
X17147444Y-15097198D01*
X17147444Y-15097198D02*
X17156968Y-15116246D01*
X17156968Y-15116246D02*
X17156968Y-15173388D01*
X17156968Y-15173388D02*
X17147444Y-15192436D01*
X17147444Y-15192436D02*
X17137920Y-15201960D01*
X17137920Y-15201960D02*
X17118873Y-15211484D01*
X17118873Y-15211484D02*
X17080777Y-15211484D01*
X17080777Y-15211484D02*
X17061730Y-15201960D01*
X17271254Y-15211484D02*
X17252206Y-15201960D01*
X17252206Y-15201960D02*
X17242682Y-15182912D01*
X17242682Y-15182912D02*
X17242682Y-15011484D01*
X17433158Y-15211484D02*
X17433158Y-15106722D01*
X17433158Y-15106722D02*
X17423635Y-15087674D01*
X17423635Y-15087674D02*
X17404587Y-15078150D01*
X17404587Y-15078150D02*
X17366492Y-15078150D01*
X17366492Y-15078150D02*
X17347444Y-15087674D01*
X17433158Y-15201960D02*
X17414111Y-15211484D01*
X17414111Y-15211484D02*
X17366492Y-15211484D01*
X17366492Y-15211484D02*
X17347444Y-15201960D01*
X17347444Y-15201960D02*
X17337920Y-15182912D01*
X17337920Y-15182912D02*
X17337920Y-15163865D01*
X17337920Y-15163865D02*
X17347444Y-15144817D01*
X17347444Y-15144817D02*
X17366492Y-15135293D01*
X17366492Y-15135293D02*
X17414111Y-15135293D01*
X17414111Y-15135293D02*
X17433158Y-15125769D01*
X17499825Y-15078150D02*
X17576015Y-15078150D01*
X17528396Y-15011484D02*
X17528396Y-15182912D01*
X17528396Y-15182912D02*
X17537920Y-15201960D01*
X17537920Y-15201960D02*
X17556968Y-15211484D01*
X17556968Y-15211484D02*
X17576015Y-15211484D01*
X17718873Y-15201960D02*
X17699825Y-15211484D01*
X17699825Y-15211484D02*
X17661730Y-15211484D01*
X17661730Y-15211484D02*
X17642682Y-15201960D01*
X17642682Y-15201960D02*
X17633158Y-15182912D01*
X17633158Y-15182912D02*
X17633158Y-15106722D01*
X17633158Y-15106722D02*
X17642682Y-15087674D01*
X17642682Y-15087674D02*
X17661730Y-15078150D01*
X17661730Y-15078150D02*
X17699825Y-15078150D01*
X17699825Y-15078150D02*
X17718873Y-15087674D01*
X17718873Y-15087674D02*
X17728396Y-15106722D01*
X17728396Y-15106722D02*
X17728396Y-15125769D01*
X17728396Y-15125769D02*
X17633158Y-15144817D01*
X17899825Y-15211484D02*
X17899825Y-15011484D01*
X17899825Y-15201960D02*
X17880777Y-15211484D01*
X17880777Y-15211484D02*
X17842682Y-15211484D01*
X17842682Y-15211484D02*
X17823635Y-15201960D01*
X17823635Y-15201960D02*
X17814111Y-15192436D01*
X17814111Y-15192436D02*
X17804587Y-15173388D01*
X17804587Y-15173388D02*
X17804587Y-15116246D01*
X17804587Y-15116246D02*
X17814111Y-15097198D01*
X17814111Y-15097198D02*
X17823635Y-15087674D01*
X17823635Y-15087674D02*
X17842682Y-15078150D01*
X17842682Y-15078150D02*
X17880777Y-15078150D01*
X17880777Y-15078150D02*
X17899825Y-15087674D01*
X17976016Y-15287674D02*
X17985539Y-15278150D01*
X17985539Y-15278150D02*
X18004587Y-15249579D01*
X18004587Y-15249579D02*
X18014111Y-15230531D01*
X18014111Y-15230531D02*
X18023635Y-15201960D01*
X18023635Y-15201960D02*
X18033158Y-15154341D01*
X18033158Y-15154341D02*
X18033158Y-15116246D01*
X18033158Y-15116246D02*
X18023635Y-15068627D01*
X18023635Y-15068627D02*
X18014111Y-15040055D01*
X18014111Y-15040055D02*
X18004587Y-15021008D01*
X18004587Y-15021008D02*
X17985539Y-14992436D01*
X17985539Y-14992436D02*
X17976016Y-14982912D01*
M02*
